<svg width="512" height="512" viewBox="0 0 512 512" fill="none" xmlns="http://www.w3.org/2000/svg">
<path d="M512 90.6304C512 153.47 460.87 204.6 398.03 204.6H392.28C385.79 204.6 380.03 200.42 378.02 194.25C365.895 157.12 340.399 138.772 337.69 136.14C329.55 128.09 326.18 116.61 328.67 105.41C329.45 101.76 331.59 98.4804 334.71 96.2904C353.94 82.7704 376.57 75.6304 400.15 75.6304H497C505.28 75.6304 512 82.3504 512 90.6304Z" fill="#9A4916"/>
<path d="M175.25 135.28C170.727 140.184 146.507 156.335 133.98 194.3C131.96 200.45 126.21 204.6 119.74 204.6H113.97C51.13 204.6 0 153.47 0 90.6304C0 82.3504 6.72 75.6304 15 75.6304H111.85C135.44 75.6304 158.07 82.7804 177.3 96.3004C180.41 98.4904 182.54 101.75 183.33 105.39C185.74 116.06 182.72 127.22 175.25 135.28Z" fill="#D66823"/>
<path d="M366.7 276.387C366.7 276.387 350.25 384.338 347.11 395.508C344.52 404.688 343.2 414.228 343.2 423.958C343.2 472.359 304.24 511.549 256.01 511.989H256C255.72 511.999 255.44 511.999 255.16 511.999C206.6 511.999 167.11 472.509 167.11 423.958V423.118C167.11 412.938 165.65 402.918 162.8 393.318C159.77 383.058 155.16 373.278 149.06 364.278L108.45 304.337C106.92 302.117 90.3999 272.627 90.3999 232.446C90.3999 197.976 102.1 164.415 123.38 137.585C139.82 116.625 147.34 116.765 146.51 111.795L128.91 34.2742C127.21 26.7742 131.46 19.1942 138.76 16.7342L186.15 0.784179C193.44 -1.66582 201.41 1.79418 204.59 8.80418L240.57 88.1052H271.43L307.41 8.80418C310.59 1.79418 318.56 -1.66582 325.85 0.784179L373.24 16.7342C380.54 19.1942 384.79 26.7742 383.09 34.2742C382.98 34.7442 365.47 111.875 365.47 111.875C364.87 114.555 366.3 114.175 374.35 121.885C379.53 126.825 384.3 132.075 388.66 137.575C425.22 183.766 366.7 276.387 366.7 276.387Z" fill="#FFD18B"/>
<path d="M366.7 276.387C366.7 276.387 350.25 384.338 347.11 395.508C344.52 404.688 343.2 414.228 343.2 423.958C343.2 472.359 304.24 511.549 256.01 511.989H256V88.1052H271.43L307.41 8.80418C310.59 1.79418 318.56 -1.66582 325.85 0.784179L373.24 16.7342C380.54 19.1942 384.79 26.7742 383.09 34.2742C382.98 34.7442 365.47 111.875 365.47 111.875C364.87 114.555 366.3 114.175 374.35 121.885C379.53 126.825 384.3 132.075 388.66 137.575C425.22 183.766 366.7 276.387 366.7 276.387Z" fill="#FFB22A"/>
<path d="M236.44 211.15V252.07C236.44 297.23 218.9 339.75 187.04 371.77C186.82 371.99 186.6 372.2 186.37 372.41L162.8 393.32C159.77 383.06 155.16 373.28 149.06 364.28L108.45 304.34C106.921 302.117 90.3999 272.629 90.3999 232.45C90.3999 197.981 102.101 164.418 123.38 137.59H162.88C203.44 137.59 236.44 170.59 236.44 211.15Z" fill="#F09B00"/>
<path d="M163.854 253.17C172.138 253.17 178.854 246.455 178.854 238.17C178.854 229.886 172.138 223.17 163.854 223.17C155.57 223.17 148.854 229.886 148.854 238.17C148.854 246.455 155.57 253.17 163.854 253.17Z" fill="#525E63"/>
<path d="M404.46 302.828C403.604 304.499 402.332 305.988 362.01 364.018C355.25 373.718 350.25 384.338 347.11 395.508L321.08 372.408C320.85 372.198 320.62 371.988 320.4 371.768C288.54 339.748 271 297.228 271 252.068V211.148C271 170.588 304 137.588 344.56 137.588H388.65C425.8 184.667 432.232 249.153 404.46 302.828Z" fill="#D66823"/>
<path d="M343.2 253.17C351.484 253.17 358.2 246.455 358.2 238.17C358.2 229.886 351.484 223.17 343.2 223.17C334.916 223.17 328.2 229.886 328.2 238.17C328.2 246.455 334.916 253.17 343.2 253.17Z" fill="#414C51"/>
<path d="M231 433.243C239.284 433.243 246 426.527 246 418.243C246 409.959 239.284 403.243 231 403.243C222.716 403.243 216 409.959 216 418.243C216 426.527 222.716 433.243 231 433.243Z" fill="#525E63"/>
<path d="M281 433.243C289.284 433.243 296 426.527 296 418.243C296 409.959 289.284 403.243 281 403.243C272.716 403.243 266 409.959 266 418.243C266 426.527 272.716 433.243 281 433.243Z" fill="#414C51"/>
</svg>
