<svg width="512" height="512" viewBox="0 0 512 512" fill="none" xmlns="http://www.w3.org/2000/svg">
<g clip-path="url(#clip0_38_13)">
<path d="M156.299 81.1421C140.688 80.6441 108.194 82.0081 80.225 98.7561L42.326 176.287C134.118 182.269 162.365 149.803 165.347 90.9221C165.611 85.7081 161.516 81.3081 156.299 81.1421Z" fill="#E34B4C"/>
<path d="M355.701 81.1421C371.312 80.6441 403.806 82.0081 431.775 98.7561L469.674 176.287C377.882 182.269 349.635 149.803 346.653 90.9221C346.389 85.7081 350.484 81.3081 355.701 81.1421Z" fill="#E34B4C"/>
<path d="M95.77 277.499C95.651 277.423 95.532 277.345 95.414 277.267C65.487 257.407 40.832 226.985 30.811 192.304C27.615 181.245 27.34 169.735 28.141 158.339C28.712 150.217 35.758 144.095 43.88 144.665C51.259 145.183 56.987 151.047 57.545 158.208C60.213 192.4 86.796 219.438 115.766 234.872C128.289 241.543 137.259 253.786 130.217 268.245C124.034 280.937 107.391 284.908 95.77 277.499Z" fill="#E34B4C"/>
<path d="M416.23 277.499C416.35 277.423 416.468 277.345 416.586 277.267C446.513 257.407 471.168 226.985 481.189 192.304C484.385 181.245 484.66 169.735 483.859 158.339C483.288 150.217 476.242 144.095 468.12 144.665C460.741 145.183 455.013 151.047 454.455 158.208C451.787 192.4 425.204 219.438 396.234 234.872C383.711 241.543 374.741 253.786 381.783 268.245C387.966 280.937 404.609 284.908 416.23 277.499Z" fill="#E34B4C"/>
<path d="M248.722 386.669C228.927 396.608 209.26 407.09 191.758 420.782C179.415 430.436 167.995 441.703 162.564 456.724C157.853 469.753 162.351 483.36 167.981 495.265C169.93 499.387 168.169 504.308 164.047 506.257C160.696 507.841 156.811 506.965 154.43 504.37C138.928 487.478 131.458 464.398 138.169 441.919C143.662 423.522 155.739 407.868 169.651 394.966C188.547 377.443 211.616 363.668 235.803 354.825C244.716 351.567 254.582 356.15 257.842 365.063C260.975 373.64 256.633 382.697 248.722 386.669Z" fill="#FD6F71"/>
<path d="M175.049 374.475C158.348 379.068 141.721 384.041 125.728 390.746C110.547 397.109 95.5441 404.819 83.9431 416.741C71.1041 430.886 70.1501 447.305 74.6081 465.163C75.7121 469.587 73.0221 474.068 68.5981 475.172C65.0001 476.07 61.3601 474.447 59.5341 471.433C47.5471 451.648 44.7291 427.942 55.8171 407.013C67.5711 384.826 89.1131 369.436 111.286 358.774C129.369 350.078 148.768 343.791 168.612 340.721C177.991 339.271 186.769 345.697 188.219 355.076C189.616 364.095 183.584 372.127 175.049 374.475Z" fill="#FD6F71"/>
<path d="M139.587 336.75C123.731 337.044 107.855 337.634 92.114 339.673C76.636 341.678 60.518 344.638 46.533 351.899C27.324 361.192 19.907 378.461 19.787 399.037C19.759 403.763 16.469 407.911 11.478 407.881C7.76904 407.858 4.64704 405.383 3.62504 402.011C-5.34396 372.395 5.22904 343.53 30.622 325.897C61.724 304.401 104.873 298.855 141.728 302.453C151.173 303.375 158.082 311.779 157.16 321.224C156.304 329.997 148.992 336.582 140.388 336.736C140.121 336.74 139.854 336.744 139.587 336.75Z" fill="#FD6F71"/>
<path d="M263.278 386.669C283.073 396.608 302.74 407.09 320.242 420.782C332.585 430.436 344.005 441.703 349.436 456.724C354.147 469.753 349.649 483.36 344.019 495.265C342.07 499.387 343.831 504.308 347.953 506.257C351.304 507.841 355.189 506.965 357.57 504.37C373.072 487.478 380.542 464.398 373.831 441.919C368.338 423.522 356.261 407.868 342.349 394.966C323.453 377.443 300.384 363.668 276.197 354.825C267.284 351.567 257.418 356.15 254.158 365.063C251.025 373.64 255.366 382.697 263.278 386.669Z" fill="#FD6F71"/>
<path d="M336.951 374.475C353.652 379.068 370.279 384.041 386.272 390.746C401.453 397.109 416.456 404.819 428.057 416.741C440.896 430.886 441.85 447.305 437.393 465.163C436.289 469.587 438.979 474.068 443.403 475.172C447.001 476.07 450.641 474.447 452.467 471.433C464.454 451.648 467.272 427.942 456.184 407.013C444.43 384.826 422.888 369.436 400.715 358.774C382.632 350.078 363.233 343.791 343.389 340.721C334.011 339.271 325.232 345.697 323.782 355.076C322.384 364.095 328.415 372.127 336.951 374.475Z" fill="#FD6F71"/>
<path d="M372.412 336.75C388.267 337.044 404.144 337.634 419.885 339.673C435.363 341.678 451.481 344.638 465.466 351.899C484.675 361.192 492.092 378.461 492.212 399.037C492.24 403.763 495.53 407.911 500.521 407.881C504.23 407.858 507.352 405.383 508.374 402.011C517.343 372.395 506.77 343.53 481.377 325.897C450.275 304.401 407.126 298.855 370.271 302.453C360.826 303.375 353.917 311.779 354.839 321.224C355.695 329.997 363.007 336.582 371.611 336.736C371.879 336.74 372.146 336.744 372.412 336.75Z" fill="#FD6F71"/>
<path d="M465.798 316.874C436.791 302.877 401.3 299.422 370.27 302.451C360.825 303.373 353.916 311.777 354.838 321.222C355.694 329.995 363.006 336.58 371.61 336.734C371.877 336.739 372.144 336.743 372.41 336.748C388.265 337.042 404.142 337.632 419.883 339.671C430.259 341.014 440.919 342.796 451.035 346.006C458.817 333.448 463.443 322.937 465.798 316.874Z" fill="#E34B4C"/>
<path d="M400.714 358.772C382.631 350.076 363.232 343.789 343.388 340.719C334.009 339.269 325.231 345.695 323.781 355.074C322.385 364.096 328.417 372.128 336.952 374.475C353.653 379.068 370.28 384.041 386.273 390.746C392.232 393.243 398.159 395.955 403.867 399.04C411.657 392.856 418.436 386.571 424.248 380.517C425.795 378.905 427.279 377.295 428.727 375.686C420.023 369.024 410.429 363.444 400.714 358.772Z" fill="#E34B4C"/>
<path d="M342.351 394.968C323.455 377.445 300.386 363.67 276.199 354.827C267.286 351.569 257.42 356.152 254.16 365.065C251.024 373.64 255.365 382.697 263.277 386.669C283.072 396.608 302.739 407.09 320.241 420.782C325.804 425.134 331.173 429.818 335.898 435.02C346.622 431.594 356.5 427.575 365.564 423.148C359.408 412.63 351.261 403.231 342.351 394.968Z" fill="#E34B4C"/>
<path d="M257.839 365.065C254.581 356.152 244.713 351.569 235.8 354.827C211.613 363.669 188.544 377.445 169.648 394.968C160.738 403.231 152.59 412.63 146.433 423.149C155.499 427.575 165.376 431.593 176.099 435.021C180.823 429.819 186.193 425.134 191.756 420.783C209.258 407.091 228.925 396.61 248.72 386.67C256.633 382.697 260.975 373.641 257.839 365.065Z" fill="#E34B4C"/>
<path d="M168.613 340.719C148.769 343.789 129.368 350.076 111.287 358.772C101.571 363.444 91.9769 369.024 83.2739 375.686C84.7229 377.294 86.2069 378.905 87.7539 380.517C93.5649 386.571 100.345 392.857 108.135 399.04C113.843 395.955 119.771 393.243 125.729 390.746C141.723 384.042 158.349 379.069 175.05 374.475C183.585 372.128 189.617 364.096 188.221 355.074C186.77 345.695 177.99 339.268 168.613 340.719Z" fill="#E34B4C"/>
<path d="M141.728 302.452C110.698 299.423 75.207 302.877 46.2 316.875C48.555 322.937 53.182 333.449 60.962 346.007C71.077 342.797 81.7379 341.016 92.1139 339.672C107.854 337.633 123.73 337.043 139.587 336.749C139.854 336.744 140.121 336.739 140.387 336.735C148.992 336.581 156.303 329.996 157.159 321.223C158.083 311.778 151.174 303.374 141.728 302.452Z" fill="#E34B4C"/>
<path d="M256 415.942C402.241 415.942 438.221 302.286 438.221 302.286C438.221 302.286 439.382 167.233 256 167.233C72.618 167.233 73.778 302.286 73.778 302.286C73.778 302.286 109.758 415.942 256 415.942Z" fill="#FD6F71"/>
<path d="M180.882 245.068C176.615 245.068 173.156 241.609 173.156 237.342V223.747C173.156 219.48 176.615 216.021 180.882 216.021C185.149 216.021 188.608 219.48 188.608 223.747V237.342C188.609 241.608 185.149 245.068 180.882 245.068Z" fill="#3A484A"/>
<path d="M331.119 245.068C326.852 245.068 323.393 241.609 323.393 237.342V223.747C323.393 219.48 326.852 216.021 331.119 216.021C335.386 216.021 338.845 219.48 338.845 223.747V237.342C338.845 241.608 335.386 245.068 331.119 245.068Z" fill="#3A484A"/>
<path d="M256 252.324C246.545 252.324 237.667 248.371 231.642 241.479C228.834 238.266 229.161 233.385 232.374 230.577C235.587 227.769 240.468 228.096 243.276 231.309C246.366 234.844 251.002 236.871 255.999 236.871C260.995 236.871 265.632 234.844 268.723 231.309C271.532 228.096 276.412 227.769 279.625 230.578C282.838 233.387 283.166 238.267 280.356 241.48C274.333 248.371 265.455 252.324 256 252.324Z" fill="#3A484A"/>
<path d="M120.989 4.95324C95.4319 4.79724 38.5149 11.6182 10.8589 71.5992C-25.4511 150.347 37.0159 209.859 84.6869 155.251C129.642 103.754 87.9009 66.3042 126.081 15.1572C129.22 10.9542 126.235 4.98524 120.989 4.95324Z" fill="#FD6F71"/>
<path d="M391.011 4.95324C416.568 4.79724 473.484 11.6182 501.14 71.6002C537.45 150.348 474.983 209.86 427.312 155.252C382.357 103.755 424.098 66.3052 385.918 15.1582C382.78 10.9542 385.765 4.98524 391.011 4.95324Z" fill="#FD6F71"/>
</g>
<defs>
<clipPath id="clip0_38_13">
<rect width="512" height="512" fill="white"/>
</clipPath>
</defs>
</svg>
