<svg width="512" height="512" viewBox="0 0 512 512" fill="none" xmlns="http://www.w3.org/2000/svg">
<g clip-path="url(#clip0_39_626)">
<path d="M492.173 155.18L402.224 124.69C396.534 122.75 392.534 117.6 392.084 111.6C391.634 105.6 394.814 99.91 400.164 97.15C414.875 89.551 422.229 74.139 419.174 58.93C418.044 53.37 420.154 47.65 424.624 44.15C429.084 40.65 435.144 39.97 440.274 42.39C500.793 70.95 511.403 135.95 511.823 138.7C513.511 149.771 502.882 158.772 492.173 155.18Z" fill="#525E63"/>
<path d="M320.068 92.009C330.53 115.227 354.407 131.5 382.134 131.5C419.18 131.5 449.853 102.485 449.853 65.75C449.853 29.107 419.098 0 382.134 0C347.89 0 319.519 24.817 315.047 56.891L314.385 57.29C297.595 67.39 286.655 84.35 284.365 103.81C282.065 123.27 288.765 142.31 302.745 156.04L357.294 209.64C363.544 215.79 367.134 224.34 367.134 233.11C367.134 250.41 353.714 264.64 336.734 265.91C335.154 266.043 322.579 280.778 322.579 280.778L336.654 295.96H336.754C370.274 294.63 397.133 266.95 397.133 233.11C397.133 216.34 390.273 199.99 378.313 188.24L323.774 134.65C316.454 127.46 312.954 117.5 314.154 107.33C314.82 101.691 316.877 96.458 320.068 92.009Z" fill="#FF7B94"/>
<path d="M280.846 364.47H213.497V281.01C213.497 267.246 196.451 260.829 187.337 270.98L98.8679 369.45C90.2239 379.054 97.0499 394.47 110.028 394.47H183.497V497C183.497 505.28 190.207 512 198.497 512H246.206C254.496 512 261.206 505.28 261.206 497C261.206 488.72 254.496 482 246.206 482H213.496V394.47H265.845V417.73C265.845 426.01 272.555 432.73 280.845 432.73C289.125 432.73 295.845 426.01 295.845 417.73V379.47C295.846 371.19 289.126 364.47 280.846 364.47ZM183.497 364.47H143.668L183.497 320.15V364.47Z" fill="#525E63"/>
<path d="M295.846 379.47V417.73C295.846 426.01 289.126 432.73 280.846 432.73C272.556 432.73 265.846 426.01 265.846 417.73V394.47H213.497V482H246.207C254.497 482 261.207 488.72 261.207 497C261.207 505.28 254.497 512 246.207 512H198.498V266.01C206.741 266.01 213.498 272.683 213.498 281.01V364.47H280.847C289.126 364.47 295.846 371.19 295.846 379.47Z" fill="#414C51"/>
<path d="M105.808 217.25C95.178 236.26 85.613 277.055 85.613 277.055L60.217 296.01C26.293 296.01 0 263.776 0 229.15V209.93C0 201.65 6.72 194.93 15 194.93H92.709C104.122 194.93 111.388 207.233 105.808 217.25Z" fill="#FFA1B2"/>
<path d="M218.958 288.397C218.958 288.397 205.579 296.008 198.497 296.01H60.2389C57.2789 263.03 64.1489 230.3 79.6089 202.61C104.489 158.06 149.338 130.03 198.487 130.03H198.507C246.722 144.755 259.042 154.845 283.921 199.395C294.651 218.615 297.937 243.55 299.967 266.01C300.877 275.91 218.958 288.397 218.958 288.397Z" fill="#FFC5CE"/>
<path d="M336.755 295.96H336.655L321.335 295.97L198.497 296.01V130.03H198.507C247.656 130.03 292.506 158.06 317.385 202.61C328.115 221.83 334.705 243.45 336.735 265.91C337.645 275.81 337.665 285.87 336.755 295.96Z" fill="#FFA1B2"/>
<path d="M397.644 65.7158C405.928 65.7158 412.644 59.0001 412.644 50.7158C412.644 42.4315 405.928 35.7158 397.644 35.7158C389.36 35.7158 382.644 42.4315 382.644 50.7158C382.644 59.0001 389.36 65.7158 397.644 65.7158Z" fill="#414C51"/>
</g>
<defs>
<clipPath id="clip0_39_626">
<rect width="512" height="512" fill="white"/>
</clipPath>
</defs>
</svg>
