<svg width="477" height="512" viewBox="0 0 477 512" fill="none" xmlns="http://www.w3.org/2000/svg">
<path d="M215.938 496.848C215.938 505.135 209.218 511.843 200.938 511.843H34.5781C0.75108 511.843 -12.8949 468.232 14.9381 448.973C22.3781 443.825 30.9681 439.226 40.4981 435.297C4.76808 385.003 -1.45192 343.916 23.0181 319.443C46.2281 296.22 70.8181 296.63 87.3581 301.059C103.778 305.448 115.198 314.615 117.318 316.404C120.198 318.843 122.058 322.282 122.528 326.021C126.468 357.941 135.388 405.766 155.548 452.301C163.318 470.255 181.138 481.852 200.938 481.852C209.218 481.853 215.938 488.571 215.938 496.848Z" fill="#2BB65E"/>
<path d="M442.078 511.844H275.718C267.438 511.844 260.718 505.136 260.718 496.849C260.718 488.572 267.438 481.854 275.718 481.854C295.598 481.854 313.408 470.278 321.088 452.353C337.048 415.655 348.458 371.998 354.128 326.023C354.588 322.284 356.448 318.845 359.338 316.406C376.448 301.951 418.178 283.976 453.638 319.445C478.108 343.917 471.878 385.014 436.158 435.299C445.698 439.238 454.278 443.826 461.718 448.975C489.534 468.221 475.927 511.844 442.078 511.844Z" fill="#008F61"/>
<path d="M348.658 464.189C335.856 493.912 306.462 511.844 275.718 511.844H200.938C168.754 511.844 140.286 492.565 128.008 464.219C106.438 414.405 96.9281 363.571 92.7481 329.701C89.6181 304.229 88.7781 282.006 88.5581 271.019C88.3191 258.787 102.116 251.408 112.158 258.433C145.638 281.836 190.448 294.732 238.328 294.732H238.338C286.088 294.732 330.788 281.896 364.238 258.593C374.151 251.719 387.688 258.74 387.818 270.749C388.435 332.199 372.191 410.721 348.658 464.189Z" fill="#70DD59"/>
<path d="M340.608 478.544C325.121 500.291 300.254 511.844 275.718 511.844H238.338V294.732C286.088 294.732 330.788 281.896 364.238 258.593C374.151 251.719 387.688 258.74 387.818 270.749C388.655 354.133 358.85 452.816 340.608 478.544Z" fill="#2BB65E"/>
<path d="M305.128 422.501V506.225C286.663 513.471 281.261 511.843 200.938 511.843C190.551 511.843 180.545 509.821 171.528 506.225V422.501C171.528 385.683 201.498 355.722 238.328 355.722H238.338C275.168 355.732 305.128 385.683 305.128 422.501Z" fill="#F2E4E4"/>
<path d="M305.128 422.501V506.225C287.529 513.132 278.48 511.843 238.338 511.843V355.723C275.168 355.732 305.128 385.683 305.128 422.501Z" fill="#D8C5C5"/>
<path d="M451.565 105.452C432.205 148.878 451.675 170.981 438.625 210.569C436.995 215.518 315.585 307.699 238.335 307.699H238.325C150.575 307.699 39.365 214.558 37.705 209.24C25.295 169.602 44.325 148.489 25.115 105.523C3.04502 56.0969 39.525 1.04487 92.135 0.0148659C113.135 -0.405134 133.465 8.09187 147.935 23.2879C156.875 32.6649 170.595 36.8839 183.745 34.3039C201.445 30.8249 219.815 29.0659 238.325 29.0659H238.335C256.845 29.0659 275.205 30.8249 292.905 34.3039C306.055 36.8829 319.765 32.6749 328.685 23.2979C343.195 8.07287 363.565 -0.385134 384.595 0.0148659C425.045 0.854866 457.985 34.4539 458.025 74.9109C458.035 85.5279 455.865 95.8049 451.565 105.452Z" fill="#70DD59"/>
<path d="M451.565 105.452C432.205 148.878 451.675 170.981 438.625 210.569C436.995 215.518 315.585 307.699 238.335 307.699V29.066C256.845 29.066 275.205 30.825 292.905 34.304C306.055 36.883 319.765 32.675 328.685 23.298C343.195 8.07304 363.565 -0.384964 384.595 0.0150361C425.045 0.855036 457.985 34.454 458.025 74.911C458.035 85.528 455.865 95.805 451.565 105.452Z" fill="#2BB65E"/>
<path d="M98.0581 94.6038C106.342 94.6038 113.058 87.8903 113.058 79.6088C113.058 71.3273 106.342 64.6138 98.0581 64.6138C89.7738 64.6138 83.0581 71.3273 83.0581 79.6088C83.0581 87.8903 89.7738 94.6038 98.0581 94.6038Z" fill="#525E63"/>
<path d="M378.598 94.6038C386.882 94.6038 393.598 87.8903 393.598 79.6088C393.598 71.3273 386.882 64.6138 378.598 64.6138C370.314 64.6138 363.598 71.3273 363.598 79.6088C363.598 87.8903 370.314 94.6038 378.598 94.6038Z" fill="#414C51"/>
<path d="M438.628 210.568C436.998 215.516 434.858 220.725 432.078 226.293C400.148 291.723 315.588 324.722 238.338 324.722H238.168C150.488 324.672 73.2981 285.144 44.5681 226.293C41.5981 220.205 39.3681 214.557 37.7081 209.238C78.5681 200.711 132.368 185.785 152.868 176.808C179.978 164.932 209.068 158.994 238.168 158.974C267.378 158.954 296.598 164.892 323.798 176.808C342.918 185.186 396.568 201.001 438.628 210.568Z" fill="#2BB65E"/>
<path d="M438.628 210.568C436.998 215.516 434.858 220.725 432.078 226.293C400.148 291.723 315.588 324.722 238.338 324.722H238.168V158.974C267.378 158.954 296.598 164.892 323.798 176.808C342.918 185.186 396.568 201.001 438.628 210.568Z" fill="#008F61"/>
</svg>
