<svg width="512" height="440" viewBox="0 0 512 440" fill="none" xmlns="http://www.w3.org/2000/svg">
<path d="M374.233 428.34C325.251 399.743 335.899 405.96 321.057 397.29C304.288 387.5 292.469 370.96 288.649 351.9L286.089 339.18C284.239 329.908 291.329 321.22 300.798 321.22H375.163C380.143 321.22 384.792 323.69 387.582 327.81L421.48 377.82C442.658 409.098 406.804 447.34 374.233 428.34Z" fill="#81A1B1"/>
<path d="M374.233 428.34L332.526 403.99V321.22H375.163C380.143 321.22 384.792 323.69 387.582 327.81L421.48 377.82C442.658 409.098 406.804 447.34 374.233 428.34Z" fill="#5A7983"/>
<path d="M511.964 194.14C511.964 232.429 512.001 256.189 512 271.22C512 277.114 504.06 285.095 504.06 285.095C504.06 285.095 511.727 297.984 511.203 301.22C506.663 329.53 482.065 351.22 452.487 351.22H254.942C208.935 351.22 164.449 334.67 129.681 304.6C87.5139 268.15 63.3359 215.3 63.3359 159.6V94.1799C63.3359 84.6519 72.1639 77.4649 81.5649 79.5399C93.9169 82.2709 106.461 81.3999 117.192 77.7199C124.621 75.1899 132.741 78.8099 135.831 86.0299C147.66 113.75 176.788 134.66 203.576 134.66H452.488C485.286 134.66 511.964 161.35 511.964 194.14Z" fill="#ADD3D8"/>
<path d="M511.964 194.14C511.964 232.429 512.001 256.189 512 271.22C512 277.292 504.06 285.095 504.06 285.095C504.06 285.095 511.722 298.012 511.203 301.22C506.663 329.53 482.065 351.22 452.487 351.22H332.526V134.66H452.487C485.286 134.66 511.964 161.35 511.964 194.14Z" fill="#81A1B1"/>
<path d="M192.266 15C192.266 56.168 166.05 92.939 126.811 106.13C64.494 127.242 0 80.367 0 15C0 6.72 6.719 0 14.999 0H177.267C185.547 0 192.266 6.72 192.266 15Z" fill="#81A1B1"/>
<path d="M511.964 271.22C511.964 293.203 512.173 295.231 511.204 301.22H423.78C402.721 301.22 382.403 293.58 366.554 279.7C360.324 274.24 359.704 264.76 365.164 258.53C370.624 252.3 380.103 251.67 386.333 257.13C396.702 266.22 410.001 271.22 423.78 271.22H511.964Z" fill="#525E63"/>
<path d="M372.244 223.673C380.528 223.673 387.243 216.958 387.243 208.674C387.243 200.39 380.528 193.675 372.244 193.675C363.96 193.675 357.245 200.39 357.245 208.674C357.245 216.958 363.96 223.673 372.244 223.673Z" fill="#525E63"/>
<path d="M407.521 47.8101C407.521 56.1001 400.801 62.8101 392.522 62.8101C384.243 62.8101 377.523 56.1001 377.523 47.8101C377.523 39.4491 370.715 32.8101 362.524 32.8101C354.255 32.8101 347.525 39.5401 347.525 47.8101V101.11C347.525 109.4 340.806 116.11 332.526 116.11C324.247 116.11 317.527 109.4 317.527 101.11V47.8101C317.527 39.5401 310.798 32.8101 302.528 32.8101C294.305 32.8101 287.529 39.4811 287.529 47.8101C287.529 56.1001 280.81 62.8101 272.53 62.8101C264.25 62.8101 257.531 56.1001 257.531 47.8101C257.531 22.7381 277.881 2.81006 302.528 2.81006C314.047 2.81006 324.556 7.16006 332.526 14.3101C340.495 7.16006 351.005 2.81006 362.524 2.81006C387.17 2.81006 407.521 22.7371 407.521 47.8101Z" fill="#81A1B1"/>
<path d="M283.43 306.89L229.714 419.04C222.293 434.53 206.132 442.008 189.877 438.31C173.368 434.55 162.269 420.66 162.269 403.72V342.14C162.269 322.71 170.598 304.17 185.107 291.27L220.684 259.64C253.381 230.576 302.307 267.461 283.43 306.89Z" fill="#81A1B1"/>
<path d="M407.521 47.8101C407.521 56.1001 400.801 62.8101 392.522 62.8101C384.243 62.8101 377.523 56.1001 377.523 47.8101C377.523 39.4491 370.715 32.8101 362.524 32.8101C354.255 32.8101 347.525 39.5401 347.525 47.8101V101.11C347.525 109.4 340.806 116.11 332.526 116.11V14.3101C340.495 7.16006 351.005 2.81006 362.524 2.81006C387.17 2.81006 407.521 22.7371 407.521 47.8101Z" fill="#5A7983"/>
</svg>
