<svg width="512" height="512" viewBox="0 0 512 512" fill="none" xmlns="http://www.w3.org/2000/svg">
<g clip-path="url(#clip0_38_139)">
<path d="M348.99 110.602H163.009C59.473 110.602 26.383 235.442 32.4 298.612L256 327.188L479.6 298.612C485.616 235.442 452.527 110.602 348.99 110.602Z" fill="#886A5E"/>
<path d="M446.918 166.465L405.889 183.235L382.815 218.896L414.755 254.489L479.083 261.564C475.816 230.675 465.721 195.24 446.918 166.465Z" fill="#A18576"/>
<path d="M32.918 261.563L97.246 254.488L125.985 218.895L106.112 183.234L65.083 166.464C46.278 195.24 36.184 230.675 32.918 261.563Z" fill="#A18576"/>
<path d="M125.984 389.523C125.984 389.523 168.765 412.919 255.999 412.919C343.233 412.919 386.014 389.523 386.014 389.523V332.703H125.984V389.523Z" fill="#F0F0F0"/>
<path d="M386.015 332.703H125.984V374.658C131.679 377.884 137.791 380.857 144.312 383.564C187.112 401.327 236.677 403.245 256 403.245C275.323 403.245 324.887 401.328 367.687 383.564C374.208 380.858 380.32 377.885 386.015 374.658V332.703Z" fill="#D9D9D9"/>
<path d="M32.4 355.766C32.4 381.502 -31.103 416.93 19.699 420.273C70.501 423.616 158.738 402.224 160.744 355.766L97.163 327.189L32.4 355.766Z" fill="#8EBA85"/>
<path d="M479.599 355.766C479.599 381.502 543.102 416.93 492.3 420.273C441.498 423.616 353.261 402.224 351.255 355.766L414.836 327.189L479.599 355.766Z" fill="#8EBA85"/>
<path d="M417.829 349.235C422.164 344.232 425.862 338.951 428.962 333.421L414.836 327.188L351.255 355.764C351.728 366.724 357.003 376.286 365.451 384.46C366.197 384.161 366.946 383.87 367.688 383.562C388.821 374.791 405.691 363.243 417.829 349.235Z" fill="#80A878"/>
<path d="M83.037 333.422C86.136 338.952 89.835 344.234 94.17 349.236C106.308 363.242 123.178 374.792 144.312 383.564C145.054 383.872 145.803 384.164 146.549 384.462C154.996 376.288 160.271 366.725 160.745 355.765L97.164 327.189L83.037 333.422Z" fill="#80A878"/>
<path d="M479.599 298.612H32.4C16.618 298.612 3.82397 311.406 3.82397 327.188C3.82397 342.97 16.618 355.765 32.4 355.765H479.6C495.382 355.765 508.176 342.971 508.176 327.188C508.177 311.406 495.382 298.612 479.599 298.612Z" fill="#7A6154"/>
<path d="M256 377.49C315.827 377.49 414.759 360.11 414.759 287.916C414.759 215.722 423.448 91.3882 256 91.3882C88.552 91.3882 97.24 215.723 97.24 287.917C97.24 360.111 196.173 377.49 256 377.49Z" fill="#A2D497"/>
<path d="M128.146 287.917C128.146 218.02 120.002 99.2512 271.452 91.7632C266.475 91.5172 261.327 91.3892 255.999 91.3892C88.55 91.3892 97.24 215.723 97.24 287.917C97.24 360.111 196.173 377.49 256 377.49C260.912 377.49 266.091 377.37 271.453 377.115C211.497 374.264 128.146 354.184 128.146 287.917Z" fill="#8EBA85"/>
<path d="M176.787 288.624C172.519 288.624 169.061 285.165 169.061 280.898V266.562C169.061 262.295 172.519 258.836 176.787 258.836C181.055 258.836 184.513 262.295 184.513 266.562V280.898C184.513 285.164 181.054 288.624 176.787 288.624Z" fill="#3B484A"/>
<path d="M335.212 288.624C330.944 288.624 327.486 285.165 327.486 280.898V266.562C327.486 262.295 330.944 258.836 335.212 258.836C339.48 258.836 342.938 262.295 342.938 266.562V280.898C342.939 285.164 339.48 288.624 335.212 288.624Z" fill="#3B484A"/>
<path d="M256 296.276C246.15 296.276 236.905 292.16 230.632 284.985C227.823 281.772 228.151 276.891 231.364 274.083C234.575 271.275 239.457 271.602 242.265 274.815C245.603 278.634 250.609 280.824 255.999 280.824C261.389 280.824 266.395 278.634 269.732 274.816C272.539 271.603 277.422 271.275 280.633 274.084C283.846 276.892 284.175 281.773 281.365 284.986C275.096 292.161 265.849 296.276 256 296.276Z" fill="#3B484A"/>
</g>
<defs>
<clipPath id="clip0_38_139">
<rect width="511.999" height="511.999" fill="white"/>
</clipPath>
</defs>
</svg>
