<svg width="452" height="512" viewBox="0 0 452 512" fill="none" xmlns="http://www.w3.org/2000/svg">
<path d="M143.828 62.0953C132.293 72.7473 128.408 79.3583 108.128 107.998C92.9981 129.395 80.3881 152.542 70.6481 176.818C66.7921 186.426 54.5931 189.297 46.8481 182.507C14.5191 154.21 -5.30189 106.531 1.24811 64.0543C12.4881 -8.92768 92.7981 -23.4567 145.338 41.6573C150.288 47.8073 149.638 56.7463 143.828 62.0953Z" fill="#F09B00"/>
<path d="M436.278 141.084C428.178 157.082 417.188 171.41 404.508 182.508C396.756 189.304 384.558 186.411 380.708 176.819C364.004 135.186 345.913 111.809 324.108 80.9832C319.248 74.1242 313.678 67.7752 307.528 62.0962C301.718 56.7472 301.068 47.8082 306.018 41.6592C332.618 8.69323 375.545 -11.4598 412.118 7.05423C453.979 28.2472 462.793 88.7292 436.278 141.084Z" fill="#D66823"/>
<path d="M378.718 447.129C344.127 485.911 290.303 511.999 231.798 511.999H219.558C165.843 511.999 112.094 490.055 72.6482 447.139C-15.6598 352.665 9.5672 195.39 83.6382 90.6812C103.818 62.1822 109.269 53.1852 123.488 40.0582C151.322 14.2852 188.032 0.0742188 225.678 0.0742188C274.458 0.0742188 320.408 23.8412 348.588 63.6552C372.019 96.7742 406.469 140.473 424.738 216.263C444.984 300.167 437.505 384.148 378.718 447.129Z" fill="#FFD18B"/>
<path d="M378.718 447.129C367.358 459.866 351.544 473.204 334.098 483.664C298.132 505.185 263.76 511.999 225.678 511.999V0.0742188C274.458 0.0742188 320.408 23.8412 348.588 63.6552C372.019 96.7742 406.469 140.473 424.738 216.263C444.984 300.167 437.505 384.148 378.718 447.129Z" fill="#FFB22A"/>
<path d="M381.708 438.89C381.508 442.349 380.108 445.629 377.758 448.179C340.604 488.407 287.789 511.999 231.798 511.999H219.558C164.298 511.999 111.108 488.742 73.6082 448.178C71.2482 445.638 69.8482 442.349 69.6482 438.889C64.1412 347.435 112.435 263.106 185.308 239.408C189.093 238.167 264.791 238.999 266.148 239.438C341.317 263.96 387.041 350.523 381.708 438.89Z" fill="#FFB22A"/>
<path d="M381.708 438.89C381.508 442.349 380.108 445.629 377.758 448.179C364.968 462.027 350.278 473.965 334.098 483.664C298.556 504.932 264.332 511.999 225.678 511.999V238.789C245.578 238.889 265.468 239.219 266.148 239.439C341.317 263.96 387.041 350.523 381.708 438.89Z" fill="#F09B00"/>
<path d="M126.826 210.949C135.11 210.949 141.826 204.234 141.826 195.951C141.826 187.668 135.11 180.953 126.826 180.953C118.542 180.953 111.826 187.668 111.826 195.951C111.826 204.234 118.542 210.949 126.826 210.949Z" fill="#525E63"/>
<path d="M324.631 210.949C332.915 210.949 339.631 204.234 339.631 195.951C339.631 187.668 332.915 180.953 324.631 180.953C316.347 180.953 309.631 187.668 309.631 195.951C309.631 204.234 316.347 210.949 324.631 210.949Z" fill="#414C51"/>
<path d="M270.678 375.339V408.344C270.678 426.911 255.578 442.009 237.008 442.009H214.348C195.778 442.009 180.678 426.911 180.678 408.344V375.339C180.678 367.06 187.398 360.341 195.678 360.341C203.948 360.341 210.678 353.612 210.678 345.343C210.678 337.064 217.398 330.345 225.678 330.345C233.958 330.345 240.678 337.064 240.678 345.343C240.678 353.612 247.408 360.341 255.678 360.341C263.958 360.341 270.678 367.06 270.678 375.339Z" fill="#F2E4E4"/>
<path d="M270.678 375.339V408.344C270.678 426.911 255.578 442.009 237.008 442.009H225.678V330.346C233.958 330.346 240.678 337.065 240.678 345.344C240.678 353.613 247.408 360.342 255.678 360.342C263.958 360.341 270.678 367.06 270.678 375.339Z" fill="#D8C5C5"/>
<path d="M300.678 345.344C300.678 383.936 254.71 404.913 225.678 378.839C208.213 394.524 181.079 394.357 163.858 377.159C155.358 368.65 150.678 357.352 150.678 345.344C150.678 337.065 157.398 330.346 165.678 330.346C173.958 330.346 180.678 337.065 180.678 345.344C180.678 353.611 187.386 360.342 195.678 360.342C203.948 360.342 210.678 353.613 210.678 345.344V291.902C203.388 289.562 196.718 285.503 191.158 279.934C181.918 270.665 175.668 260.867 172.578 250.798C168.348 236.98 173.878 221.702 186.038 213.653C210.158 197.684 241.03 197.971 264.558 213.093C277.578 221.452 283.308 237.419 278.508 251.937C275.308 261.596 269.178 271.024 260.288 279.933C254.939 285.305 248.339 289.478 240.678 291.931V345.343C240.678 358.722 256.925 365.326 266.278 355.941C269.118 353.111 270.678 349.342 270.678 345.343C270.678 337.064 277.398 330.345 285.678 330.345C293.958 330.345 300.678 337.065 300.678 345.344Z" fill="#D66823"/>
<path d="M300.678 345.344C300.678 383.936 254.71 404.913 225.678 378.839V201.715C239.216 201.715 252.679 205.459 264.558 213.093C277.578 221.452 283.308 237.419 278.508 251.937C275.308 261.596 269.178 271.024 260.288 279.933C254.939 285.305 248.339 289.478 240.678 291.931V345.343C240.678 358.722 256.925 365.326 266.278 355.941C269.118 353.111 270.678 349.342 270.678 345.343C270.678 337.064 277.398 330.345 285.678 330.345C293.958 330.345 300.678 337.065 300.678 345.344Z" fill="#9A4916"/>
</svg>
