<svg width="470" height="512" viewBox="0 0 470 512" fill="none" xmlns="http://www.w3.org/2000/svg">
<path d="M158.892 84.068L92.8621 195.599C88.7201 202.621 79.6601 205.061 72.5021 200.979C35.1421 179.589 11.9121 151.369 3.48212 117.119C-10.4479 60.588 21.8221 9.09803 23.2021 6.92803C28.4241 -1.25297 39.9131 -2.38297 46.6421 4.57803C63.9701 21.906 102.385 46.931 150.502 62.118C159.718 65.035 163.816 75.778 158.892 84.068Z" fill="#81A1B1"/>
<path d="M466.242 117.118C457.812 151.368 434.582 179.588 397.222 200.978C390.064 205.06 381.004 202.621 376.862 195.598L310.832 84.0682C305.916 75.7902 309.99 65.0402 319.222 62.1182C387.922 40.4382 422.742 4.93817 423.082 4.57817C429.801 -2.37283 441.292 -1.26583 446.522 6.92817C447.902 9.09817 480.172 60.5882 466.242 117.118Z" fill="#5A7983"/>
<path d="M400.942 444.6C379.952 464.43 351.432 472.42 340.852 477.38C323.062 485.67 302.112 512 234.862 512C167.612 512 146.662 485.67 128.872 477.38C118.292 472.42 89.7721 464.43 68.7821 444.6C47.6621 424.66 40.0321 398.86 46.1021 367.9C51.8121 338.77 52.6621 320.34 53.7321 297.01C55.0521 268.42 56.6921 232.85 68.6321 164.919C80.8621 95.3393 126.212 65.5993 162.102 52.8993C197.022 40.5393 227.812 42.1293 234.862 42.1793C241.912 42.1293 272.702 40.5393 307.622 52.8993C343.512 65.5993 388.862 95.3393 401.092 164.919C413.032 232.849 414.672 268.419 415.992 297.01C417.062 320.34 417.912 338.77 423.622 367.9C429.692 398.86 422.062 424.66 400.942 444.6Z" fill="#ADD3D8"/>
<path d="M400.942 444.6C379.952 464.43 351.432 472.42 340.852 477.38C323.062 485.67 302.112 512 234.862 512V42.1783C241.912 42.1283 272.702 40.5383 307.622 52.8983C343.512 65.5983 388.862 95.3383 401.092 164.918C413.032 232.848 414.672 268.418 415.992 297.009C417.062 320.339 417.912 338.769 423.622 367.899C429.692 398.86 422.062 424.66 400.942 444.6Z" fill="#81A1B1"/>
<path d="M293.392 346.759C276.342 359.934 257.444 367.818 234.862 367.829C212.373 367.84 193.542 360.058 176.332 346.759C165.152 338.119 160.612 323.029 165.032 309.199L220.572 135.648C222.802 128.688 228.832 125.238 234.862 125.248C240.892 125.258 246.932 128.738 249.152 135.648L304.692 309.199C309.112 323.029 304.572 338.119 293.392 346.759Z" fill="#F2E4E4"/>
<path d="M210.721 442.905C202.437 442.905 195.721 436.189 195.721 427.905C195.721 422.95 191.69 418.92 186.735 418.92C178.451 418.92 171.735 412.204 171.735 403.92C171.735 395.636 178.451 388.92 186.735 388.92C208.232 388.92 225.721 406.409 225.721 427.906C225.721 436.19 219.006 442.905 210.721 442.905Z" fill="#525E63"/>
<path d="M259.003 442.905C250.719 442.905 244.003 436.189 244.003 427.905C244.003 406.408 261.492 388.919 282.989 388.919C291.273 388.919 297.989 395.635 297.989 403.919C297.989 412.203 291.273 418.919 282.989 418.919C278.034 418.919 274.003 422.95 274.003 427.904C274.003 436.19 267.287 442.905 259.003 442.905Z" fill="#414C51"/>
<path d="M133.501 282.721C141.785 282.721 148.501 276.005 148.501 267.721C148.501 259.437 141.785 252.721 133.501 252.721C125.217 252.721 118.501 259.437 118.501 267.721C118.501 276.005 125.217 282.721 133.501 282.721Z" fill="#525E63"/>
<path d="M336.223 282.721C344.507 282.721 351.223 276.005 351.223 267.721C351.223 259.437 344.507 252.721 336.223 252.721C327.939 252.721 321.223 259.437 321.223 267.721C321.223 276.005 327.939 282.721 336.223 282.721Z" fill="#414C51"/>
<path d="M293.392 346.759C276.342 359.934 257.444 367.818 234.862 367.829V125.249C240.892 125.259 246.932 128.739 249.152 135.649L304.692 309.2C309.112 323.029 304.572 338.119 293.392 346.759Z" fill="#D8C5C5"/>
</svg>
