<svg width="75" height="75" viewBox="0 0 75 75" fill="none" xmlns="http://www.w3.org/2000/svg">
<g clip-path="url(#clip0_39_881)">
<path d="M41.4923 13.9935C43.6678 9.90628 44.3864 2.89172 37.5 2.89172C30.6137 2.89172 31.3323 9.90628 33.5079 13.9935H41.4923Z" fill="#FA3044"/>
<path d="M63.4714 32.0751C69.1193 22.6475 81.0321 27.7106 71.3031 37.2409C75.6712 37.2409 76.3662 43.5945 71.1044 43.5945C75.0753 47.8633 68.8317 55.2846 63.8628 48.5461L63.4714 32.0751Z" fill="#FA3044"/>
<path d="M62.6673 39.8537C62.2991 39.8537 61.9381 39.6743 61.7207 39.3437C61.3772 38.8216 61.5222 38.1196 62.0445 37.7763C63.4353 36.8612 67.3214 34.0594 68.5837 32.1091C68.9232 31.5842 69.6241 31.4341 70.1487 31.7738C70.6736 32.1133 70.8236 32.8141 70.484 33.3388C68.7047 36.0883 63.5086 39.5228 63.2883 39.6677C63.0964 39.7935 62.8804 39.8537 62.6673 39.8537Z" fill="#D02857"/>
<path d="M62.985 43.4357C62.9713 43.4357 62.9613 43.4357 62.9557 43.4357C62.3307 43.4312 61.8275 42.9209 61.8321 42.2958C61.8366 41.6735 62.3424 41.1721 62.9637 41.1721C62.9669 41.1721 62.966 41.1721 62.9742 41.1721C63.1069 41.1721 66.8125 41.1556 69.3495 39.6989C69.8915 39.3878 70.5833 39.5749 70.8945 40.1171C71.2056 40.6591 71.0185 41.351 70.4763 41.6621C67.4672 43.3898 63.4037 43.4357 62.985 43.4357Z" fill="#D02857"/>
<path d="M11.5288 32.0751C5.8809 22.6475 -6.03194 27.7106 3.69697 37.2409C-0.671198 37.2409 -1.36612 43.5945 3.8956 43.5945C-0.0752999 47.8633 6.1683 55.2846 11.1372 48.5461L11.5288 32.0751Z" fill="#FA3044"/>
<path d="M12.333 39.8537C12.1196 39.8537 11.9038 39.7935 11.7123 39.6676C11.492 39.5227 6.29577 36.0882 4.51657 33.3387C4.17702 32.8138 4.32702 32.1132 4.85188 31.7737C5.37658 31.4341 6.07736 31.5841 6.41692 32.109C7.68093 34.0623 11.5657 36.8622 12.9558 37.776C13.478 38.1195 13.6231 38.8212 13.2799 39.3434C13.0623 39.6743 12.7011 39.8537 12.333 39.8537Z" fill="#D02857"/>
<path d="M12.015 43.4357C11.5967 43.4357 7.53312 43.3898 4.52345 41.6621C3.98146 41.3509 3.79411 40.6591 4.10524 40.1171C4.41637 39.5751 5.10836 39.3877 5.65021 39.6989C8.22218 41.1753 11.9959 41.1738 12.029 41.1721C12.0309 41.1721 12.0331 41.1721 12.035 41.1721C12.6568 41.1721 13.1634 41.6742 13.1672 42.2969C13.1712 42.9215 12.6687 43.4311 12.0441 43.4357C12.0385 43.4357 12.0287 43.4357 12.015 43.4357Z" fill="#D02857"/>
<path d="M39.833 60.5711C38.4446 64.2265 36.2627 67.816 32.9192 69.9838C30.7438 71.3943 27.8865 72.2393 25.2897 72.0918C21.6829 71.8869 21.2288 69.492 19.2744 67.0504C17.5965 64.9545 14.7972 64.8542 12.3632 64.3926C9.90478 63.9265 8.26826 61.3235 9.67964 58.9787C11.6614 55.686 17.308 56.5986 20.3324 57.1938L39.833 60.5711Z" fill="#FA3044"/>
<path d="M28.6156 67.5592C28.2819 67.5592 27.9515 67.4124 27.7282 67.1306C27.3397 66.6409 27.422 65.9291 27.9117 65.5405C30.4586 63.5206 31.4789 60.0822 31.4888 60.0476C31.6627 59.448 32.2898 59.1016 32.8895 59.2743C33.4894 59.4473 33.8363 60.0722 33.6646 60.6724C33.6162 60.8411 32.446 64.8333 29.3182 67.314C29.1101 67.4792 28.8621 67.5592 28.6156 67.5592Z" fill="#D02857"/>
<path d="M20.5729 63.7872C20.0596 63.7872 19.5948 63.4358 19.4722 62.9143C19.3289 62.3058 19.7063 61.6964 20.3146 61.5533C23.3088 60.8489 25.6244 58.4868 25.6474 58.4629C26.082 58.0145 26.798 58.0019 27.2472 58.4354C27.6963 58.869 27.7102 59.5835 27.2775 60.0335C27.1654 60.15 24.4916 62.8958 20.8332 63.7567C20.7457 63.7774 20.6586 63.7872 20.5729 63.7872Z" fill="#D02857"/>
<path d="M37.4999 60.6324C43.3563 60.6324 49.2129 59.4863 54.6675 57.1938C61.1634 54.4638 64.5177 50.3451 64.8923 43.1785C65.7426 26.9067 54.1733 13.0178 37.5 13.0178C20.8267 13.0178 9.25753 26.9067 10.1079 43.1785C10.4824 50.3451 13.8368 54.4636 20.3326 57.1938C25.787 59.4861 31.6433 60.6324 37.4999 60.6324Z" fill="#FF4D50"/>
<path d="M24.209 42.259C23.584 42.259 23.0773 41.7524 23.0773 41.1273V38.7219C23.0773 38.0968 23.584 37.5901 24.209 37.5901C24.8341 37.5901 25.3407 38.0968 25.3407 38.7219V41.1273C25.3407 41.7524 24.8341 42.259 24.209 42.259Z" fill="#3B484A"/>
<path d="M50.7912 42.259C50.1661 42.259 49.6594 41.7524 49.6594 41.1273V38.7219C49.6594 38.0968 50.1661 37.5901 50.7912 37.5901C51.4162 37.5901 51.9229 38.0968 51.9229 38.7219V41.1273C51.9229 41.7524 51.4162 42.259 50.7912 42.259Z" fill="#3B484A"/>
<path d="M37.4999 43.543C35.8949 43.543 34.3886 42.873 33.3673 41.7046C32.956 41.234 33.0039 40.519 33.4746 40.1077C33.9452 39.6963 34.6602 39.7442 35.0715 40.2149C35.6627 40.8914 36.5479 41.2794 37.4998 41.2794C38.4515 41.2794 39.3367 40.8914 39.9282 40.2149C40.3394 39.7442 41.0545 39.696 41.5252 40.1078C41.9958 40.5191 42.0439 41.2341 41.6323 41.7048C40.6114 42.873 39.105 43.543 37.4999 43.543Z" fill="#3B484A"/>
<path d="M19.305 51.9437C19.1389 51.9437 18.9702 51.9071 18.8108 51.8295C16.4464 50.6794 15.1529 48.8018 14.9177 48.4372C14.5789 47.9119 14.7299 47.2114 15.2553 46.8726C15.7806 46.5341 16.4811 46.6849 16.8199 47.2102C16.9291 47.3794 17.9395 48.8888 19.8007 49.7941C20.3628 50.0676 20.5969 50.7448 20.3235 51.307C20.1278 51.7095 19.7246 51.9437 19.305 51.9437Z" fill="#D01D2E"/>
<path d="M21.2769 48.8945C21.1107 48.8945 20.942 48.8579 20.7826 48.7802C18.8175 47.8243 17.7475 46.1896 17.7028 46.1205C17.3638 45.5954 17.515 44.8947 18.0401 44.5559C18.5638 44.218 19.262 44.3672 19.6018 44.889C19.6156 44.9097 20.3996 46.0769 21.7726 46.7448C22.3346 47.0183 22.5686 47.6955 22.2952 48.2577C22.0994 48.6604 21.6962 48.8945 21.2769 48.8945Z" fill="#D01D2E"/>
<path d="M55.6951 51.9437C55.2754 51.9437 54.8723 51.7095 54.6764 51.3068C54.403 50.7448 54.637 50.0674 55.1992 49.7939C57.0602 48.8888 58.0711 47.3791 58.1803 47.2099C58.5193 46.6846 59.2199 46.5338 59.7449 46.8727C60.2701 47.2117 60.4211 47.9122 60.0822 48.4373C59.8468 48.8021 58.553 50.6797 56.1892 51.8295C56.0298 51.9071 55.8612 51.9437 55.6951 51.9437Z" fill="#D01D2E"/>
<path d="M53.7233 48.8945C53.3038 48.8945 52.9005 48.6603 52.7047 48.2576C52.4312 47.6955 52.6651 47.0182 53.2273 46.7447C54.6075 46.0733 55.3877 44.905 55.3953 44.8933C55.7343 44.368 56.4349 44.2171 56.9599 44.5559C57.485 44.8949 57.6362 45.5954 57.2972 46.1205C57.2527 46.1897 56.1825 47.8243 54.2174 48.7802C54.0582 48.8579 53.8894 48.8945 53.7233 48.8945Z" fill="#D01D2E"/>
<path d="M62.6666 20.4639C64.4532 20.4639 65.9016 19.0155 65.9016 17.2289C65.9016 15.4423 64.4532 13.994 62.6666 13.994C60.88 13.994 59.4316 15.4423 59.4316 17.2289C59.4316 19.0155 60.88 20.4639 62.6666 20.4639Z" fill="#7EDEE6"/>
<path d="M58.1348 11.8839C59.4825 11.8839 60.575 10.7914 60.575 9.44374C60.575 8.09609 59.4825 7.0036 58.1348 7.0036C56.7872 7.0036 55.6947 8.09609 55.6947 9.44374C55.6947 10.7914 56.7872 11.8839 58.1348 11.8839Z" fill="#CBFDFF"/>
<path d="M66.0996 7.77322C67.4472 7.77322 68.5397 6.68073 68.5397 5.33308C68.5397 3.98543 67.4472 2.89294 66.0996 2.89294C64.7519 2.89294 63.6594 3.98543 63.6594 5.33308C63.6594 6.68073 64.7519 7.77322 66.0996 7.77322Z" fill="#7EDEE6"/>
</g>
<defs>
<clipPath id="clip0_39_881">
<rect width="75" height="75" fill="white"/>
</clipPath>
</defs>
</svg>
