<svg width="45" height="45" viewBox="0 0 45 45" fill="none" xmlns="http://www.w3.org/2000/svg">
<g clip-path="url(#clip0_39_330)">
<path d="M31.2629 7.13161C32.6349 7.08784 35.4908 7.20772 37.9491 8.67971L41.28 15.494C33.2124 16.0197 30.7297 13.1663 30.4676 7.99118C30.4444 7.53292 30.8043 7.1462 31.2629 7.13161Z" fill="#494949"/>
<path d="M13.7373 7.13161C12.3652 7.08784 9.5093 7.20772 7.05108 8.67971L3.72011 15.494C11.7878 16.0197 14.2704 13.1663 14.5325 7.99118C14.5557 7.53292 14.1958 7.1462 13.7373 7.13161Z" fill="#494949"/>
<path d="M36.5828 24.3896C36.5932 24.3829 36.6037 24.376 36.6141 24.3692C39.2444 22.6237 41.4113 19.9498 42.2921 16.9017C42.573 15.9297 42.5971 14.9181 42.5267 13.9165C42.4765 13.2027 41.8573 12.6646 41.1434 12.7147C40.4949 12.7602 39.9914 13.2756 39.9424 13.905C39.7079 16.9101 37.3715 19.2865 34.8253 20.643C33.7247 21.2294 32.9363 22.3054 33.5552 23.5762C34.0986 24.6917 35.5614 25.0407 36.5828 24.3896Z" fill="#494949"/>
<path d="M8.4173 24.3896C8.40675 24.3829 8.39638 24.376 8.38601 24.3692C5.75571 22.6237 3.58876 19.9498 2.70801 16.9017C2.42711 15.9297 2.40294 14.9181 2.47334 13.9165C2.52353 13.2027 3.14281 12.6646 3.85665 12.7147C4.5052 12.7602 5.00864 13.2756 5.05768 13.905C5.29217 16.9101 7.62857 19.2865 10.1748 20.643C11.2754 21.2294 12.0638 22.3054 11.4449 23.5762C10.9014 24.6917 9.43867 25.0407 8.4173 24.3896Z" fill="#494949"/>
<path d="M23.1397 33.9846C24.8795 34.8581 26.608 35.7794 28.1463 36.9828C29.2311 37.8313 30.2348 38.8215 30.7121 40.1417C31.1262 41.2869 30.7309 42.4828 30.236 43.5291C30.0647 43.8914 30.2195 44.3239 30.5818 44.4952C30.8763 44.6345 31.2178 44.5575 31.4271 44.3294C32.7895 42.8447 33.4461 40.8162 32.8562 38.8405C32.3735 37.2236 31.312 35.8478 30.0893 34.7138C28.4285 33.1737 26.4009 31.963 24.2751 31.1858C23.4918 30.8994 22.6246 31.3022 22.3381 32.0856C22.0627 32.8394 22.4444 33.6355 23.1397 33.9846Z" fill="#949494"/>
<path d="M29.6149 32.9128C31.0827 33.3165 32.5441 33.7536 33.9497 34.3429C35.284 34.9021 36.6026 35.5798 37.6222 36.6276C38.7507 37.8708 38.8345 39.3139 38.4427 40.8835C38.3457 41.2723 38.5821 41.6661 38.9709 41.7632C39.2872 41.8421 39.6071 41.6994 39.7676 41.4345C40.8211 39.6956 41.0688 37.6121 40.0943 35.7726C39.0612 33.8226 37.1678 32.4699 35.219 31.5329C33.6297 30.7686 31.9247 30.216 30.1806 29.9462C29.3563 29.8187 28.5848 30.3835 28.4574 31.2078C28.3346 32.0005 28.8647 32.7065 29.6149 32.9128Z" fill="#949494"/>
<path d="M32.7316 29.5972C34.1252 29.623 35.5206 29.6749 36.9041 29.8541C38.2644 30.0303 39.6811 30.2905 40.9102 30.9286C42.5985 31.7454 43.2504 33.2632 43.2609 35.0716C43.2634 35.487 43.5526 35.8516 43.9912 35.8489C44.3172 35.8469 44.5916 35.6294 44.6814 35.333C45.4697 32.73 44.5404 30.1931 42.3086 28.6433C39.5751 26.754 35.7827 26.2666 32.5435 26.5828C31.7133 26.6638 31.1061 27.4025 31.1871 28.2326C31.2624 29.0037 31.905 29.5824 32.6612 29.596C32.6847 29.5963 32.7082 29.5967 32.7316 29.5972Z" fill="#949494"/>
<path d="M21.8604 33.9846C20.1206 34.8581 18.392 35.7794 16.8538 36.9828C15.7689 37.8313 14.7652 38.8215 14.2879 40.1417C13.8738 41.2869 14.2692 42.4828 14.764 43.5291C14.9353 43.8914 14.7805 44.3239 14.4182 44.4952C14.1237 44.6345 13.7823 44.5575 13.573 44.3294C12.2105 42.8447 11.554 40.8162 12.1438 38.8405C12.6266 37.2236 13.688 35.8478 14.9108 34.7138C16.5716 33.1737 18.5991 31.963 20.7249 31.1858C21.5083 30.8994 22.3754 31.3022 22.6619 32.0856C22.9373 32.8394 22.5558 33.6355 21.8604 33.9846Z" fill="#949494"/>
<path d="M15.3852 32.9128C13.9173 33.3165 12.4559 33.7536 11.0503 34.3429C9.71603 34.9021 8.39741 35.5798 7.37779 36.6276C6.24936 37.8708 6.16551 39.3139 6.55724 40.8835C6.65427 41.2723 6.41785 41.6661 6.02902 41.7632C5.71279 41.8421 5.39287 41.6994 5.23238 41.4345C4.17883 39.6956 3.93116 37.6121 4.90569 35.7726C5.93876 33.8226 7.8321 32.4699 9.78089 31.5329C11.3702 30.7686 13.0752 30.216 14.8193 29.9462C15.6436 29.8187 16.4151 30.3835 16.5426 31.2078C16.6655 32.0005 16.1354 32.7065 15.3852 32.9128Z" fill="#949494"/>
<path d="M12.2686 29.5972C10.8751 29.623 9.47961 29.6749 8.09612 29.8541C6.73575 30.0303 5.31913 30.2905 4.08998 30.9286C2.40169 31.7454 1.74981 33.2632 1.73926 35.0716C1.7368 35.487 1.44764 35.8516 1.00898 35.8489C0.682989 35.8469 0.408595 35.6294 0.318771 35.333C-0.46952 32.73 0.459746 30.1931 2.69155 28.6433C5.42513 26.754 9.21752 26.2666 12.4567 26.5828C13.2869 26.6638 13.8941 27.4025 13.8131 28.2326C13.7378 29.0037 13.0952 29.5824 12.339 29.596C12.3154 29.5963 12.2919 29.5967 12.2686 29.5972Z" fill="#949494"/>
<path d="M4.06072 27.8503C6.61016 26.62 9.72949 26.3164 12.4567 26.5826C13.2869 26.6636 13.8941 27.4023 13.8131 28.2324C13.7378 29.0035 13.0952 29.5822 12.339 29.5958C12.3155 29.5962 12.292 29.5965 12.2686 29.597C10.8751 29.6228 9.4797 29.6747 8.09621 29.8539C7.18426 29.9719 6.24735 30.1286 5.35824 30.4107C4.67428 29.307 4.2677 28.3831 4.06072 27.8503Z" fill="#494949"/>
<path d="M9.78094 31.5327C11.3703 30.7684 13.0753 30.2158 14.8194 29.946C15.6437 29.8186 16.4152 30.3834 16.5426 31.2077C16.6653 32.0006 16.1352 32.7066 15.385 32.9129C13.9172 33.3165 12.4558 33.7536 11.0502 34.3429C10.5264 34.5624 10.0055 34.8007 9.50382 35.0719C8.81916 34.5284 8.22335 33.976 7.71253 33.4439C7.57656 33.3022 7.44613 33.1607 7.31886 33.0193C8.08386 32.4338 8.92709 31.9433 9.78094 31.5327Z" fill="#494949"/>
<path d="M14.9105 34.714C16.5713 33.1739 18.5988 31.9632 20.7246 31.186C21.508 30.8996 22.3751 31.3024 22.6617 32.0858C22.9373 32.8395 22.5558 33.6355 21.8604 33.9846C20.1206 34.8581 18.392 35.7794 16.8538 36.9828C16.3648 37.3653 15.8929 37.777 15.4777 38.2342C14.5351 37.9331 13.6669 37.5798 12.8703 37.1907C13.4114 36.2663 14.1274 35.4402 14.9105 34.714Z" fill="#494949"/>
<path d="M22.3383 32.0858C22.6247 31.3024 23.492 30.8996 24.2754 31.186C26.4012 31.9631 28.4287 33.1739 30.0895 34.714C30.8726 35.4402 31.5887 36.2663 32.1299 37.1908C31.3331 37.5798 30.465 37.933 29.5225 38.2343C29.1073 37.7771 28.6354 37.3653 28.1464 36.9829C26.6082 35.7795 24.8796 34.8583 23.1398 33.9847C22.4443 33.6355 22.0627 32.8395 22.3383 32.0858Z" fill="#494949"/>
<path d="M30.1805 29.946C31.9246 30.2158 33.6298 30.7684 35.219 31.5327C36.0729 31.9433 36.9161 32.4338 37.681 33.0193C37.5537 33.1606 37.4232 33.3022 37.2873 33.4439C36.7765 33.976 36.1806 34.5285 35.496 35.0719C34.9943 34.8007 34.4733 34.5624 33.9496 34.3429C32.5439 33.7537 31.0826 33.3166 29.6148 32.9128C28.8646 32.7066 28.3345 32.0006 28.4572 31.2077C28.5847 30.3834 29.3564 29.8185 30.1805 29.946Z" fill="#494949"/>
<path d="M32.5434 26.5827C35.2707 26.3165 38.39 26.6201 40.9395 27.8504C40.7325 28.3831 40.3258 29.307 39.642 30.4108C38.753 30.1287 37.816 29.9721 36.904 29.854C35.5206 29.6748 34.1253 29.6229 32.7316 29.5971C32.7081 29.5966 32.6847 29.5962 32.6613 29.5959C31.905 29.5823 31.2624 29.0036 31.1872 28.2325C31.106 27.4024 31.7132 26.6637 32.5434 26.5827Z" fill="#494949"/>
<path d="M22.5 36.5574C9.64679 36.5574 6.48449 26.5681 6.48449 26.5681C6.48449 26.5681 6.38245 14.6982 22.5 14.6982C38.6176 14.6982 38.5156 26.5681 38.5156 26.5681C38.5156 26.5681 35.3533 36.5574 22.5 36.5574Z" fill="#949494"/>
<path d="M29.1022 21.5392C29.4772 21.5392 29.7812 21.2352 29.7812 20.8601V19.6652C29.7812 19.2902 29.4772 18.9862 29.1022 18.9862C28.7272 18.9862 28.4232 19.2902 28.4232 19.6652V20.8601C28.4231 21.2351 28.7272 21.5392 29.1022 21.5392Z" fill="#3A484A"/>
<path d="M15.8977 21.5392C16.2728 21.5392 16.5768 21.2352 16.5768 20.8601V19.6652C16.5768 19.2902 16.2728 18.9862 15.8977 18.9862C15.5227 18.9862 15.2187 19.2902 15.2187 19.6652V20.8601C15.2187 21.2351 15.5227 21.5392 15.8977 21.5392Z" fill="#3A484A"/>
<path d="M22.5001 22.1769C23.3311 22.1769 24.1114 21.8295 24.6409 21.2237C24.8877 20.9414 24.859 20.5124 24.5766 20.2656C24.2942 20.0188 23.8652 20.0475 23.6184 20.3299C23.3468 20.6406 22.9393 20.8187 22.5002 20.8187C22.0611 20.8187 21.6535 20.6406 21.3818 20.3299C21.1349 20.0475 20.706 20.0188 20.4236 20.2656C20.1413 20.5125 20.1124 20.9414 20.3594 21.2238C20.8888 21.8295 21.6691 22.1769 22.5001 22.1769Z" fill="#3A484A"/>
<path d="M34.3662 0.435314C36.6124 0.421603 41.6149 1.0211 44.0456 6.29287C47.2369 13.2141 41.7466 18.4446 37.5568 13.6451C33.6057 9.119 37.2743 5.82749 33.9186 1.33215C33.6428 0.962745 33.9051 0.438126 34.3662 0.435314Z" fill="#949494"/>
<path d="M10.6338 0.435314C8.38757 0.421603 3.38519 1.0211 0.954483 6.29296C-2.23683 13.2142 3.25344 18.4447 7.44327 13.6452C11.3944 9.11908 7.72575 5.82758 11.0814 1.33224C11.3572 0.962745 11.0949 0.438126 10.6338 0.435314Z" fill="#949494"/>
</g>
<defs>
<clipPath id="clip0_39_330">
<rect width="45" height="45" fill="white" transform="matrix(-1 0 0 1 45 0)"/>
</clipPath>
</defs>
</svg>
