<svg width="45" height="45" viewBox="0 0 45 45" fill="none" xmlns="http://www.w3.org/2000/svg">
<g clip-path="url(#clip0_39_660)">
<path d="M29.177 7.38895L34.9804 17.1915C35.3445 17.8086 36.1408 18.0231 36.7699 17.6643C40.0535 15.7843 42.0952 13.3041 42.8361 10.2938C44.0604 5.32527 41.2242 0.799785 41.1029 0.609062C40.6439 -0.109971 39.6342 -0.209288 39.0427 0.402519C37.5198 1.92549 34.1435 4.12495 29.9144 5.45975C29.1044 5.71612 28.7442 6.66033 29.177 7.38895Z" fill="#787878"/>
<path d="M2.16384 10.2936C2.90476 13.3038 4.94646 15.7841 8.23005 17.6641C8.85917 18.0229 9.65546 17.8085 10.0195 17.1912L15.8229 7.3888C16.255 6.66125 15.8969 5.71642 15.0855 5.4596C9.04743 3.55414 5.98708 0.434019 5.9572 0.402379C5.36666 -0.208549 4.35671 -0.111254 3.89704 0.608922C3.77575 0.799644 0.939523 5.32513 2.16384 10.2936Z" fill="#515151"/>
<path d="M7.90311 39.0762C9.74793 40.819 12.2546 41.5213 13.1845 41.9572C14.748 42.6858 16.5893 45 22.5 45C28.4106 45 30.2519 42.6858 31.8155 41.9572C32.7454 41.5213 35.252 40.819 37.0969 39.0762C38.9531 37.3236 39.6237 35.0561 39.0902 32.335C38.5884 29.7747 38.5137 28.1549 38.4196 26.1044C38.3036 23.5916 38.1595 20.4653 37.11 14.4948C36.0351 8.37941 32.0493 5.76554 28.8949 4.64933C25.8258 3.563 23.1196 3.70275 22.5 3.70714C21.8804 3.70275 19.1742 3.563 16.1051 4.64933C12.9507 5.76554 8.96483 8.37941 7.88992 14.4948C6.84051 20.4652 6.69637 23.5915 6.58035 26.1044C6.48631 28.1549 6.4116 29.7747 5.90975 32.335C5.37625 35.0561 6.04686 37.3236 7.90311 39.0762Z" fill="#ABABAB"/>
<path d="M7.90313 39.0762C9.74795 40.819 12.2546 41.5213 13.1845 41.9572C14.748 42.6858 16.5894 45 22.5 45V3.70705C21.8804 3.70265 19.1742 3.56291 16.1051 4.64924C12.9507 5.76545 8.96484 8.37931 7.88994 14.4947C6.84053 20.4652 6.69639 23.5914 6.58037 26.1043C6.48633 28.1548 6.41162 29.7746 5.90977 32.3349C5.37627 35.0561 6.04688 37.3236 7.90313 39.0762Z" fill="#787878"/>
<path d="M17.3558 30.4769C18.8543 31.6348 20.5153 32.3277 22.5 32.3287C24.4766 32.3297 26.1317 31.6457 27.6443 30.4769C28.6269 29.7175 29.0259 28.3912 28.6374 27.1757L23.756 11.9222C23.56 11.3105 23.03 11.0072 22.5 11.0081C21.97 11.009 21.4392 11.3149 21.2441 11.9222L16.3626 27.1757C15.9741 28.3912 16.3732 29.7175 17.3558 30.4769Z" fill="#F2E4E4"/>
<path d="M24.6218 38.9272C25.3499 38.9272 25.9401 38.3369 25.9401 37.6088C25.9401 37.1734 26.2944 36.8192 26.7299 36.8192C27.458 36.8192 28.0483 36.2289 28.0483 35.5008C28.0483 34.7727 27.458 34.1824 26.7299 34.1824C24.8405 34.1824 23.3034 35.7196 23.3034 37.6089C23.3034 38.337 23.8936 38.9272 24.6218 38.9272Z" fill="#525E63"/>
<path d="M20.3782 38.9272C21.1063 38.9272 21.6966 38.3369 21.6966 37.6088C21.6966 35.7195 20.1595 34.1823 18.2701 34.1823C17.542 34.1823 16.9517 34.7726 16.9517 35.5007C16.9517 36.2288 17.542 36.8191 18.2701 36.8191C18.7056 36.8191 19.0599 37.1733 19.0599 37.6088C19.0599 38.337 19.6501 38.9272 20.3782 38.9272Z" fill="#414C51"/>
<path d="M31.4087 24.8485C30.6806 24.8485 30.0903 24.2583 30.0903 23.5302C30.0903 22.802 30.6806 22.2118 31.4087 22.2118C32.1368 22.2118 32.7271 22.802 32.7271 23.5302C32.7271 24.2583 32.1368 24.8485 31.4087 24.8485Z" fill="#525E63"/>
<path d="M13.5913 24.8485C12.8632 24.8485 12.2729 24.2583 12.2729 23.5302C12.2729 22.802 12.8632 22.2118 13.5913 22.2118C14.3194 22.2118 14.9097 22.802 14.9097 23.5302C14.9097 24.2583 14.3194 24.8485 13.5913 24.8485Z" fill="#414C51"/>
<path d="M17.3558 30.4769C18.8543 31.6348 20.5153 32.3278 22.5 32.3287V11.0082C21.97 11.0091 21.4392 11.3149 21.244 11.9223L16.3626 27.1758C15.9741 28.3912 16.3731 29.7175 17.3558 30.4769Z" fill="#D8C5C5"/>
</g>
<defs>
<clipPath id="clip0_39_660">
<rect width="45" height="45" fill="white" transform="matrix(-1 0 0 1 45 0)"/>
</clipPath>
</defs>
</svg>
