<svg width="45" height="45" viewBox="0 0 45 45" fill="none" xmlns="http://www.w3.org/2000/svg">
<g clip-path="url(#clip0_39_703)">
<path d="M1.74262 13.6389L9.64829 10.9591C10.1484 10.7886 10.5 10.3359 10.5395 9.80858C10.5791 9.28124 10.2996 8.78114 9.82935 8.53856C8.53639 7.87068 7.89004 6.51611 8.15855 5.17938C8.25786 4.69071 8.07242 4.18798 7.67955 3.88036C7.28755 3.57274 6.75494 3.51298 6.30406 3.72567C0.985004 6.23583 0.0524845 11.9487 0.0155706 12.1904C-0.132789 13.1635 0.8014 13.9546 1.74262 13.6389Z" fill="#525E63"/>
<path d="M16.8691 8.08673C15.9495 10.1274 13.851 11.5576 11.414 11.5576C8.15804 11.5576 5.46217 9.00747 5.46217 5.77881C5.46217 2.55823 8.16525 0 11.414 0C14.4238 0 16.9173 2.18118 17.3104 5.00019L17.3685 5.03525C18.8442 5.92295 19.8057 7.41357 20.007 9.12393C20.2092 10.8343 19.6203 12.5077 18.3916 13.7145L13.5972 18.4254C13.0479 18.9659 12.7324 19.7174 12.7324 20.4882C12.7324 22.0087 13.9119 23.2594 15.4043 23.371C15.5431 23.3827 16.6484 24.6778 16.6484 24.6778L15.4113 26.0121H15.4025C12.4564 25.8952 10.0958 23.4624 10.0958 20.4882C10.0958 19.0143 10.6987 17.5772 11.7499 16.5445L16.5433 11.8345C17.1867 11.2025 17.4943 10.3271 17.3888 9.4333C17.3303 8.93769 17.1495 8.47775 16.8691 8.08673Z" fill="#999999"/>
<path d="M20.3163 32.0335H26.2356V24.6982C26.2356 23.4884 27.7338 22.9244 28.5349 23.8166L36.3104 32.4712C37.0702 33.3153 36.4702 34.6702 35.3296 34.6702H28.8724V43.6817C28.8724 44.4094 28.2826 45 27.554 45H23.3608C22.6322 45 22.0425 44.4094 22.0425 43.6817C22.0425 42.9539 22.6322 42.3633 23.3608 42.3633H26.2357V34.6702H21.6347V36.7146C21.6347 37.4423 21.045 38.0329 20.3164 38.0329C19.5886 38.0329 18.998 37.4423 18.998 36.7146V33.3519C18.9979 32.6241 19.5886 32.0335 20.3163 32.0335ZM28.8724 32.0335H32.3729L28.8724 28.1382V32.0335Z" fill="#525E63"/>
<path d="M18.9979 33.3519V36.7146C18.9979 37.4423 19.5885 38.0329 20.3163 38.0329C21.0449 38.0329 21.6346 37.4423 21.6346 36.7146V34.6702H26.2356V42.3633H23.3607C22.6321 42.3633 22.0424 42.9539 22.0424 43.6816C22.0424 44.4094 22.6321 45 23.3607 45H27.5539V23.3798C26.8294 23.3798 26.2355 23.9663 26.2355 24.6982V32.0335H20.3162C19.5885 32.0335 18.9979 32.6241 18.9979 33.3519Z" fill="#414C51"/>
<path d="M35.7005 19.0942C36.6347 20.765 37.4754 24.3505 37.4754 24.3505L39.7075 26.0165C42.6891 26.0165 45 23.1834 45 20.1401V18.4509C45 17.7231 44.4094 17.1325 43.6816 17.1325H36.8517C35.8487 17.1325 35.21 18.2138 35.7005 19.0942Z" fill="#BDBDBD"/>
<path d="M25.7557 25.3474C25.7557 25.3474 26.9316 26.0163 27.554 26.0165H39.7056C39.9657 23.1179 39.3619 20.2412 38.0031 17.8075C35.8164 13.892 31.8746 11.4284 27.5549 11.4284H27.5531C23.3155 12.7226 22.2327 13.6094 20.046 17.5249C19.103 19.2142 18.8142 21.4058 18.6357 23.3798C18.5558 24.2499 25.7557 25.3474 25.7557 25.3474Z" fill="#9F9F9F"/>
<path d="M15.4024 26.0121H15.4112L16.7576 26.013L27.554 26.0165V11.4284H27.5531C23.2333 11.4284 19.2914 13.892 17.1048 17.8075C16.1617 19.4968 15.5826 21.397 15.4041 23.371C15.3242 24.2411 15.3224 25.1253 15.4024 26.0121Z" fill="#BDBDBD"/>
<path d="M10.0508 5.77582C9.32273 5.77582 8.73248 5.18557 8.73248 4.45746C8.73248 3.72935 9.32273 3.1391 10.0508 3.1391C10.779 3.1391 11.3692 3.72935 11.3692 4.45746C11.3692 5.18557 10.779 5.77582 10.0508 5.77582Z" fill="#414C51"/>
</g>
<defs>
<clipPath id="clip0_39_703">
<rect width="45" height="45" fill="white" transform="matrix(-1 0 0 1 45 0)"/>
</clipPath>
</defs>
</svg>
