<svg width="45" height="45" viewBox="0 0 45 45" fill="none" xmlns="http://www.w3.org/2000/svg">
<g clip-path="url(#clip0_39_744)">
<path d="M-2.28882e-05 7.96552C-2.28882e-05 13.4886 4.49382 17.9824 10.0169 17.9824H10.5222C11.0927 17.9824 11.5989 17.615 11.7756 17.0727C12.8412 13.8094 15.0821 12.1967 15.3202 11.9654C16.0356 11.2579 16.3318 10.2489 16.113 9.26454C16.0444 8.94374 15.8563 8.65546 15.5821 8.46298C13.892 7.2747 11.903 6.64716 9.83054 6.64716H1.31834C0.590602 6.64716 -2.28882e-05 7.23778 -2.28882e-05 7.96552Z" fill="#2D2D2D"/>
<path d="M29.5972 11.8898C29.9947 12.3208 32.1234 13.7404 33.2244 17.0771C33.402 17.6177 33.9073 17.9824 34.476 17.9824H34.9831C40.5062 17.9824 45 13.4886 45 7.96552C45 7.23778 44.4094 6.64716 43.6816 6.64716H35.1694C33.0961 6.64716 31.1071 7.27557 29.417 8.46386C29.1437 8.65634 28.9564 8.94286 28.887 9.26278C28.6752 10.2006 28.9406 11.1814 29.5972 11.8898Z" fill="#888888"/>
<path d="M12.7705 24.2918C12.7705 24.2918 14.2163 33.7797 14.4923 34.7614C14.7199 35.5683 14.8359 36.4067 14.8359 37.2619C14.8359 41.5159 18.2602 44.9603 22.4991 44.999H22.5C22.5246 44.9999 22.5492 44.9999 22.5738 44.9999C26.8418 44.9999 30.3126 41.5291 30.3126 37.2619V37.1881C30.3126 36.2934 30.4409 35.4127 30.6914 34.569C30.9577 33.6672 31.3629 32.8076 31.899 32.0166L35.4683 26.7484C35.6027 26.5532 37.0547 23.9613 37.0547 20.4298C37.0547 17.4002 36.0264 14.4505 34.1561 12.0924C32.7111 10.2502 32.0502 10.2625 32.1231 9.82572L33.67 3.01235C33.8194 2.35317 33.4459 1.68696 32.8043 1.47075L28.6392 0.0688915C27.9984 -0.146441 27.2979 0.157661 27.0185 0.773774L23.8562 7.74359H21.1438L17.9815 0.773774C17.702 0.157661 17.0016 -0.146441 16.3608 0.0688915L12.1957 1.47075C11.5541 1.68696 11.1806 2.35317 11.33 3.01235C11.3396 3.05366 12.8786 9.83275 12.8786 9.83275C12.9313 10.0683 12.8057 10.0349 12.0981 10.7125C11.6429 11.1467 11.2236 11.6081 10.8404 12.0915C7.62715 16.1513 12.7705 24.2918 12.7705 24.2918Z" fill="#868686"/>
<path d="M12.7705 24.2918C12.7705 24.2918 14.2163 33.7797 14.4923 34.7614C14.7199 35.5683 14.8359 36.4067 14.8359 37.2619C14.8359 41.5159 18.2602 44.9603 22.4991 44.999H22.5V7.74359H21.1438L17.9815 0.773774C17.7021 0.157661 17.0016 -0.146441 16.3608 0.0688915L12.1957 1.47075C11.5541 1.68696 11.1806 2.35317 11.33 3.01235C11.3396 3.05366 12.8786 9.83275 12.8786 9.83275C12.9313 10.0683 12.8057 10.0349 12.0981 10.7125C11.6429 11.1467 11.2236 11.6081 10.8404 12.0915C7.62715 16.1513 12.7705 24.2918 12.7705 24.2918Z" fill="#B7B7B7"/>
<path d="M24.2191 18.5581V22.1546C24.2191 26.1237 25.7607 29.8608 28.5609 32.6751C28.5803 32.6944 28.5996 32.7129 28.6198 32.7313L30.6914 34.5691C30.9577 33.6674 31.3629 32.8078 31.899 32.0168L35.4683 26.7486C35.6026 26.5532 37.0547 23.9615 37.0547 20.4302C37.0547 17.4007 36.0263 14.4508 34.1561 12.0929H30.6844C27.1195 12.0929 24.2191 14.9933 24.2191 18.5581Z" fill="#9E9E9E"/>
<path d="M30.5988 22.2513C29.8706 22.2513 29.2804 21.661 29.2804 20.9329C29.2804 20.2048 29.8706 19.6146 30.5988 19.6146C31.3269 19.6146 31.9171 20.2048 31.9171 20.9329C31.9171 21.661 31.3269 22.2513 30.5988 22.2513Z" fill="#525E63"/>
<path d="M9.45176 26.6157C9.52699 26.7626 9.63879 26.8935 13.1827 31.9938C13.7769 32.8463 14.2163 33.7797 14.4923 34.7614L16.7801 32.7312C16.8003 32.7127 16.8205 32.6942 16.8398 32.6749C19.64 29.8607 21.1816 26.1235 21.1816 22.1544V18.5579C21.1816 14.9931 18.2813 12.0927 14.7164 12.0927H10.8413C7.57617 16.2305 7.01086 21.8982 9.45176 26.6157Z" fill="#888888"/>
<path d="M14.8359 22.2513C14.1078 22.2513 13.5176 21.661 13.5176 20.9329C13.5176 20.2048 14.1078 19.6146 14.8359 19.6146C15.564 19.6146 16.1543 20.2048 16.1543 20.9329C16.1543 21.661 15.564 22.2513 14.8359 22.2513Z" fill="#414C51"/>
<path d="M24.6973 38.078C23.9692 38.078 23.3789 37.4878 23.3789 36.7596C23.3789 36.0315 23.9692 35.4413 24.6973 35.4413C25.4254 35.4413 26.0156 36.0315 26.0156 36.7596C26.0156 37.4878 25.4254 38.078 24.6973 38.078Z" fill="#525E63"/>
<path d="M20.3027 38.078C19.5746 38.078 18.9844 37.4878 18.9844 36.7596C18.9844 36.0315 19.5746 35.4413 20.3027 35.4413C21.0308 35.4413 21.6211 36.0315 21.6211 36.7596C21.6211 37.4878 21.0308 38.078 20.3027 38.078Z" fill="#414C51"/>
</g>
<defs>
<clipPath id="clip0_39_744">
<rect width="45" height="45" fill="white" transform="matrix(-1 0 0 1 45 0)"/>
</clipPath>
</defs>
</svg>
