<svg width="45" height="45" viewBox="0 0 45 45" fill="none" xmlns="http://www.w3.org/2000/svg">
<g clip-path="url(#clip0_39_432)">
<path d="M24.4678 43.6683C24.4678 44.3966 25.0584 44.9862 25.7861 44.9862H40.4076C43.3807 44.9862 44.5801 41.1532 42.1338 39.4605C41.4799 39.0081 40.7249 38.6039 39.8873 38.2585C43.0276 33.8382 43.5743 30.227 41.4236 28.0761C39.3837 26.035 37.2225 26.071 35.7688 26.4603C34.3256 26.846 33.3219 27.6517 33.1356 27.809C32.8824 28.0233 32.719 28.3256 32.6776 28.6542C32.3314 31.4597 31.5474 35.663 29.7755 39.753C29.0926 41.331 27.5264 42.3503 25.7861 42.3503C25.0584 42.3504 24.4678 42.9408 24.4678 43.6683Z" fill="#949494"/>
<path d="M4.5922 44.9863H19.2137C19.9414 44.9863 20.532 44.3967 20.532 43.6684C20.532 42.9409 19.9414 42.3504 19.2137 42.3504C17.4664 42.3504 15.9011 41.333 15.2261 39.7576C13.8234 36.5322 12.8205 32.6951 12.3222 28.6544C12.2817 28.3257 12.1183 28.0235 11.8643 27.8091C10.3605 26.5387 6.69278 24.9588 3.57618 28.0762C1.4255 30.2271 1.97306 33.8391 5.11251 38.2587C4.27403 38.6049 3.51993 39.0081 2.86603 39.4607C0.421263 41.1522 1.61719 44.9863 4.5922 44.9863Z" fill="#3F3F3F"/>
<path d="M12.803 40.7979C13.9281 43.4102 16.5116 44.9863 19.2137 44.9863H25.7862C28.6148 44.9863 31.1169 43.2919 32.196 40.8005C34.0918 36.4223 34.9277 31.9545 35.295 28.9776C35.5701 26.7389 35.644 24.7857 35.6633 23.82C35.6843 22.745 34.4717 22.0964 33.5891 22.7139C30.6465 24.7708 26.7081 25.9042 22.4999 25.9042H22.499C18.3023 25.9042 14.3736 24.776 11.4336 22.7279C10.5624 22.1238 9.37258 22.7408 9.36116 23.7963C9.30693 29.1972 10.7346 36.0985 12.803 40.7979Z" fill="#BEBEBE"/>
<path d="M13.5104 42.0595C14.8716 43.9709 17.0572 44.9863 19.2137 44.9863H22.499V25.9042C18.3022 25.9042 14.3735 24.776 11.4336 22.7279C10.5623 22.1237 9.37256 22.7408 9.36113 23.7963C9.28757 31.125 11.9071 39.7983 13.5104 42.0595Z" fill="#949494"/>
<path d="M16.6288 37.1339V44.4924C18.2517 45.1293 18.7265 44.9862 25.7862 44.9862C26.6991 44.9862 27.5785 44.8085 28.371 44.4924V37.1339C28.371 33.8979 25.737 31.2646 22.4999 31.2646H22.4991C19.262 31.2655 16.6288 33.8979 16.6288 37.1339Z" fill="#F2E4E4"/>
<path d="M16.6288 37.1339V44.4924C18.1756 45.0995 18.9709 44.9862 22.499 44.9862V31.2647C19.262 31.2655 16.6288 33.8979 16.6288 37.1339Z" fill="#D8C5C5"/>
<path d="M3.7584 9.26823C5.45996 13.085 3.74873 15.0276 4.89571 18.507C5.03897 18.942 15.7098 27.0438 22.4993 27.0438H22.5002C30.2126 27.0438 39.9869 18.8576 40.1328 18.3902C41.2235 14.9064 39.551 13.0508 41.2394 9.27447C43.1791 4.93039 39.9729 0.0918339 35.3489 0.00130658C33.5032 -0.0356075 31.7164 0.711199 30.4446 2.04679C29.6589 2.87094 28.453 3.24175 27.2973 3.01499C25.7416 2.70922 24.1271 2.55462 22.5002 2.55462H22.4993C20.8725 2.55462 19.2588 2.70922 17.7031 3.01499C16.5474 3.24166 15.3424 2.87181 14.5584 2.04766C13.2831 0.709529 11.4928 -0.0338497 9.64444 0.00130658C6.08926 0.0751347 3.19415 3.02817 3.19063 6.58396C3.18975 7.5171 3.38047 8.42035 3.7584 9.26823Z" fill="#BEBEBE"/>
<path d="M3.75835 9.26824C5.45991 13.085 3.74868 15.0276 4.89565 18.507C5.03892 18.942 15.7097 27.0439 22.4993 27.0439V2.55463C20.8724 2.55463 19.2587 2.70922 17.7031 3.015C16.5473 3.24167 15.3423 2.87182 14.5583 2.04767C13.2831 0.709538 11.4927 -0.0338414 9.64438 0.00131486C6.08921 0.075143 3.19409 3.02818 3.19058 6.58397C3.1897 7.51711 3.38042 8.42036 3.75835 9.26824Z" fill="#949494"/>
<path d="M34.8283 8.31479C34.1002 8.31479 33.5099 7.72474 33.5099 6.99688C33.5099 6.26901 34.1002 5.67896 34.8283 5.67896C35.5564 5.67896 36.1467 6.26901 36.1467 6.99688C36.1467 7.72474 35.5564 8.31479 34.8283 8.31479Z" fill="#525E63"/>
<path d="M10.1715 8.31479C9.4434 8.31479 8.85315 7.72474 8.85315 6.99688C8.85315 6.26901 9.4434 5.67896 10.1715 5.67896C10.8996 5.67896 11.4899 6.26901 11.4899 6.99688C11.4899 7.72474 10.8996 8.31479 10.1715 8.31479Z" fill="#414C51"/>
<path d="M4.8954 18.507C5.03867 18.9418 5.22675 19.3997 5.47108 19.889C8.27743 25.6397 15.7095 28.54 22.499 28.54H22.514C30.2202 28.5356 37.0045 25.0615 39.5296 19.889C39.7906 19.354 39.9866 18.8576 40.1325 18.3901C36.5413 17.6406 31.8128 16.3288 30.011 15.5398C27.6283 14.496 25.0716 13.9741 22.514 13.9723C19.9467 13.9706 17.3785 14.4925 14.9879 15.5398C13.3074 16.2761 8.59208 17.6661 4.8954 18.507Z" fill="#949494"/>
<path d="M4.89542 18.507C5.03869 18.9418 5.22677 19.3997 5.47111 19.889C8.27745 25.6397 15.7095 28.54 22.499 28.54H22.514V13.9723C19.9467 13.9706 17.3785 14.4925 14.9879 15.5398C13.3074 16.2761 8.5921 17.6661 4.89542 18.507Z" fill="#3F3F3F"/>
</g>
<defs>
<clipPath id="clip0_39_432">
<rect width="45" height="45" fill="white" transform="matrix(-1 0 0 1 45 0)"/>
</clipPath>
</defs>
</svg>
