<svg width="45" height="45" viewBox="0 0 45 45" fill="none" xmlns="http://www.w3.org/2000/svg">
<g clip-path="url(#clip0_39_680)">
<path d="M29.6925 5.45765C30.7064 6.39386 31.0478 6.97491 32.8302 9.4921C34.16 11.3727 35.2683 13.4071 36.1244 15.5407C36.4633 16.3852 37.5355 16.6375 38.2162 16.0407C41.0576 13.5537 42.7997 9.36316 42.224 5.62983C41.2361 -0.784602 34.1776 -2.06156 29.5598 3.66135C29.1248 4.20187 29.1819 4.98753 29.6925 5.45765Z" fill="#AEAEAE"/>
<path d="M3.98895 12.4C4.70086 13.8061 5.66678 15.0654 6.78123 16.0408C7.46256 16.6381 8.53465 16.3839 8.87303 15.5408C10.3412 11.8817 11.9312 9.82704 13.8476 7.11773C14.2748 6.51489 14.7643 5.95687 15.3049 5.45774C15.8155 4.98761 15.8726 4.20196 15.4376 3.66152C13.0997 0.764114 9.32681 -1.00715 6.11239 0.620061C2.4332 2.48273 1.65853 7.79853 3.98895 12.4Z" fill="#3E3E3E"/>
<path d="M9.04788 39.2985C12.0881 42.7071 16.8187 45 21.9608 45H23.0366C27.7576 45 32.4816 43.0713 35.9486 39.2994C43.71 30.996 41.4928 17.173 34.9826 7.9701C33.209 5.4653 32.7299 4.67455 31.4802 3.52081C29.0339 1.25561 25.8074 0.0065918 22.4987 0.0065918C18.2114 0.0065918 14.1728 2.09549 11.696 5.59477C9.63666 8.50562 6.60883 12.3463 5.00315 19.0076C3.22372 26.382 3.88105 33.7631 9.04788 39.2985Z" fill="#A8A8A8"/>
<path d="M9.04788 39.2985C10.0463 40.418 11.4362 41.5903 12.9696 42.5096C16.1306 44.4011 19.1516 45 22.4987 45V0.0065918C18.2114 0.0065918 14.1728 2.09549 11.696 5.59477C9.63666 8.50562 6.60882 12.3463 5.00315 19.0076C3.22372 26.382 3.88105 33.7631 9.04788 39.2985Z" fill="#747474"/>
<path d="M8.7851 38.5744C8.80268 38.8784 8.92572 39.1667 9.13227 39.3908C12.3978 42.9265 17.0397 45 21.9608 45H23.0366C27.8934 45 32.5683 42.9559 35.8642 39.3907C36.0716 39.1675 36.1947 38.8784 36.2122 38.5743C36.6963 30.5364 32.4517 23.1246 26.0468 21.0418C25.7142 20.9327 19.061 21.0059 18.9417 21.0444C12.3351 23.1997 8.31638 30.8078 8.7851 38.5744Z" fill="#747474"/>
<path d="M8.78508 38.5744C8.80266 38.8784 8.92571 39.1667 9.13225 39.3908C10.2564 40.6079 11.5475 41.6572 12.9696 42.5096C16.0934 44.3789 19.1013 45 22.4987 45V20.9874C20.7496 20.9962 19.0015 21.0252 18.9417 21.0445C12.3351 23.1997 8.31636 30.8078 8.78508 38.5744Z" fill="#AEAEAE"/>
<path d="M31.1868 18.5405C30.4587 18.5405 29.8685 17.9504 29.8685 17.2224C29.8685 16.4943 30.4587 15.9042 31.1868 15.9042C31.9149 15.9042 32.5052 16.4943 32.5052 17.2224C32.5052 17.9504 31.9149 18.5405 31.1868 18.5405Z" fill="#525E63"/>
<path d="M13.8016 18.5405C13.0735 18.5405 12.4833 17.9504 12.4833 17.2224C12.4833 16.4943 13.0735 15.9042 13.8016 15.9042C14.5297 15.9042 15.12 16.4943 15.12 17.2224C15.12 17.9504 14.5297 18.5405 13.8016 18.5405Z" fill="#414C51"/>
<path d="M18.5436 32.9889V35.8897C18.5436 37.5215 19.8707 38.8485 21.5029 38.8485H23.4945C25.1266 38.8485 26.4537 37.5215 26.4537 35.8897V32.9889C26.4537 32.2612 25.8631 31.6707 25.1354 31.6707C24.4085 31.6707 23.817 31.0793 23.817 30.3525C23.817 29.6248 23.2264 29.0343 22.4987 29.0343C21.7709 29.0343 21.1803 29.6248 21.1803 30.3525C21.1803 31.0793 20.5888 31.6707 19.8619 31.6707C19.1342 31.6707 18.5436 32.2612 18.5436 32.9889Z" fill="#F2E4E4"/>
<path d="M18.5436 32.9889V35.8897C18.5436 37.5216 19.8707 38.8485 21.5029 38.8485H22.4987V29.0344C21.7709 29.0344 21.1803 29.6249 21.1803 30.3526C21.1803 31.0793 20.5888 31.6708 19.8619 31.6708C19.1342 31.6707 18.5436 32.2612 18.5436 32.9889Z" fill="#D8C5C5"/>
<path d="M15.9069 30.3526C15.9069 33.7445 19.947 35.5881 22.4987 33.2965C24.0337 34.675 26.4185 34.6604 27.9321 33.1488C28.6791 32.401 29.0905 31.408 29.0905 30.3526C29.0905 29.6249 28.4998 29.0344 27.7721 29.0344C27.0444 29.0344 26.4537 29.6249 26.4537 30.3526C26.4537 31.0792 25.8642 31.6708 25.1354 31.6708C24.4085 31.6708 23.817 31.0794 23.817 30.3526V25.6555C24.4577 25.4499 25.044 25.0931 25.5326 24.6037C26.3448 23.789 26.8941 22.9278 27.1656 22.0429C27.5374 20.8284 27.0514 19.4856 25.9826 18.7782C23.8627 17.3747 21.1494 17.3999 19.0815 18.729C17.9371 19.4636 17.4335 20.867 17.8554 22.143C18.1366 22.9919 18.6754 23.8205 19.4568 24.6036C19.9269 25.0757 20.507 25.4425 21.1803 25.6581V30.3525C21.1803 31.5284 19.7523 32.1088 18.9303 31.284C18.6807 31.0352 18.5436 30.704 18.5436 30.3525C18.5436 29.6248 17.953 29.0343 17.2252 29.0343C16.4975 29.0343 15.9069 29.6249 15.9069 30.3526Z" fill="#3E3E3E"/>
<path d="M15.9069 30.3526C15.9069 33.7445 19.947 35.5881 22.4987 33.2965V17.7289C21.3088 17.7289 20.1255 18.058 19.0815 18.729C17.9371 19.4636 17.4335 20.867 17.8554 22.143C18.1366 22.9919 18.6754 23.8206 19.4568 24.6036C19.9269 25.0757 20.507 25.4425 21.1803 25.6581V30.3525C21.1803 31.5284 19.7523 32.1088 18.9303 31.284C18.6807 31.0352 18.5436 30.704 18.5436 30.3525C18.5436 29.6249 17.953 29.0343 17.2252 29.0343C16.4975 29.0343 15.9069 29.6249 15.9069 30.3526Z" fill="#7E7E7E"/>
</g>
<defs>
<clipPath id="clip0_39_680">
<rect width="45" height="45" fill="white" transform="matrix(-1 0 0 1 45 0)"/>
</clipPath>
</defs>
</svg>
