<svg width="46" height="46" viewBox="0 0 46 46" fill="none" xmlns="http://www.w3.org/2000/svg">
<g clip-path="url(#clip0_39_389)">
<path d="M14.6454 9.93692H31.3547C40.6568 9.93692 43.6297 21.153 43.0891 26.8285L23 29.3959L2.91091 26.8285C2.37041 21.153 5.34325 9.93692 14.6454 9.93692Z" fill="#0A0A0A"/>
<path d="M5.84706 14.9559L9.53326 16.4626L11.6063 19.6665L8.73671 22.8643L2.95723 23.4999C3.25075 20.7248 4.15772 17.5411 5.84706 14.9559Z" fill="#525252"/>
<path d="M43.0425 23.4998L37.263 22.8642L34.681 19.6664L36.4664 16.4625L40.1527 14.9558C41.8422 17.5411 42.7491 20.7247 43.0425 23.4998Z" fill="#525252"/>
<path d="M34.6811 34.9963C34.6811 34.9963 30.8375 37.0983 23 37.0983C15.1626 37.0983 11.319 34.9963 11.319 34.9963V29.8914H34.6811V34.9963Z" fill="#F0F0F0"/>
<path d="M11.3189 29.8914H34.6811V33.6608C34.1694 33.9506 33.6203 34.2177 33.0344 34.4609C29.1891 36.0568 24.736 36.2291 22.9999 36.2291C21.2639 36.2291 16.8109 36.0569 12.9655 34.4609C12.3797 34.2178 11.8305 33.9507 11.3189 33.6608V29.8914Z" fill="#D9D9D9"/>
<path d="M43.0891 31.9634C43.0891 34.2756 48.7944 37.4586 44.2302 37.759C39.6659 38.0593 31.7384 36.1374 31.5582 31.9634L37.2705 29.3959L43.0891 31.9634Z" fill="#B9B9B9"/>
<path d="M2.91097 31.9634C2.91097 34.2756 -2.79439 37.4586 1.76986 37.759C6.33411 38.0593 14.2617 36.1374 14.4419 31.9634L8.72953 29.3959L2.91097 31.9634Z" fill="#B9B9B9"/>
<path d="M8.46062 31.3766C8.07115 30.9271 7.73891 30.4527 7.46039 29.9558L8.72953 29.3958L14.4419 31.9632C14.3994 32.9479 13.9255 33.807 13.1665 34.5414C13.0994 34.5145 13.0322 34.4884 12.9655 34.4607C11.0668 33.6727 9.55115 32.6352 8.46062 31.3766Z" fill="#757575"/>
<path d="M38.5397 29.9559C38.2612 30.4528 37.9289 30.9273 37.5394 31.3767C36.4489 32.6351 34.9332 33.6728 33.0345 34.4609C32.9678 34.4886 32.9005 34.5148 32.8335 34.5416C32.0746 33.8072 31.6007 32.948 31.5581 31.9633L37.2704 29.3959L38.5397 29.9559Z" fill="#757575"/>
<path d="M2.911 26.8285H43.0891C44.507 26.8285 45.6565 27.9779 45.6565 29.3958C45.6565 30.8138 44.507 31.9633 43.0891 31.9633H2.91091C1.493 31.9633 0.343533 30.8138 0.343533 29.3958C0.343445 27.9779 1.493 26.8285 2.911 26.8285Z" fill="#313131"/>
<path d="M23 33.9152C17.6249 33.9152 8.73645 32.3537 8.73645 25.8675C8.73645 19.3813 7.9558 8.21066 23 8.21066C38.0442 8.21066 37.2636 19.3814 37.2636 25.8676C37.2636 32.3538 28.3751 33.9152 23 33.9152Z" fill="#949494"/>
<path d="M34.4869 25.8676C34.4869 19.5878 35.2186 8.91711 21.6117 8.24436C22.0589 8.22225 22.5214 8.21075 23.0001 8.21075C38.0443 8.21075 37.2636 19.3814 37.2636 25.8676C37.2636 32.3538 28.3751 33.9152 23 33.9152C22.5587 33.9152 22.0934 33.9044 21.6116 33.8815C26.9983 33.6254 34.4869 31.8213 34.4869 25.8676Z" fill="#B9B9B9"/>
<path d="M30.1168 25.9311C30.5002 25.9311 30.8109 25.6204 30.8109 25.237V23.949C30.8109 23.5656 30.5002 23.2549 30.1168 23.2549C29.7333 23.2549 29.4226 23.5656 29.4226 23.949V25.237C29.4226 25.6203 29.7334 25.9311 30.1168 25.9311Z" fill="#3B484A"/>
<path d="M15.8833 25.9311C16.2667 25.9311 16.5774 25.6204 16.5774 25.237V23.949C16.5774 23.5656 16.2667 23.2549 15.8833 23.2549C15.4998 23.2549 15.1891 23.5656 15.1891 23.949V25.237C15.189 25.6203 15.4998 25.9311 15.8833 25.9311Z" fill="#3B484A"/>
<path d="M22.9999 26.6186C23.8849 26.6186 24.7155 26.2488 25.2791 25.6042C25.5315 25.3155 25.502 24.877 25.2133 24.6247C24.9249 24.3724 24.4862 24.4018 24.234 24.6905C23.9341 25.0336 23.4843 25.2303 23 25.2303C22.5158 25.2303 22.066 25.0336 21.7662 24.6906C21.514 24.4019 21.0753 24.3724 20.7868 24.6248C20.4982 24.8771 20.4686 25.3156 20.7211 25.6043C21.2843 26.2489 22.1151 26.6186 22.9999 26.6186Z" fill="#3B484A"/>
</g>
<defs>
<clipPath id="clip0_39_389">
<rect width="46" height="46" fill="white" transform="matrix(-1 0 0 1 46 0)"/>
</clipPath>
</defs>
</svg>
