<svg width="28" height="28" viewBox="0 0 28 28" fill="none" xmlns="http://www.w3.org/2000/svg">
<g clip-path="url(#clip0_44_157)">
<path d="M11.2927 15.9713L13.9993 13.918L16.6943 15.9713L15.6677 12.6463L18.3743 10.4997H15.061L13.9993 7.22134L12.9377 10.4997H9.62435L12.3193 12.6463L11.2927 15.9713ZM23.3327 11.6663C23.3327 6.50967 19.156 2.33301 13.9993 2.33301C8.84268 2.33301 4.66602 6.50967 4.66602 11.6663C4.66602 14.0347 5.55268 16.1813 6.99935 17.8263V26.833L13.9993 24.4997L20.9993 26.833V17.8263C22.446 16.1813 23.3327 14.0347 23.3327 11.6663ZM13.9993 4.66634C17.861 4.66634 20.9993 7.80467 20.9993 11.6663C20.9993 15.528 17.861 18.6663 13.9993 18.6663C10.1377 18.6663 6.99935 15.528 6.99935 11.6663C6.99935 7.80467 10.1377 4.66634 13.9993 4.66634ZM13.9993 22.1663L9.33268 23.3563V19.7397C10.7093 20.533 12.296 20.9997 13.9993 20.9997C15.7027 20.9997 17.2893 20.533 18.666 19.7397V23.3563L13.9993 22.1663Z" fill="white"/>
</g>
<defs>
<clipPath id="clip0_44_157">
<rect width="28" height="28" fill="white"/>
</clipPath>
</defs>
</svg>
