<svg width="100" height="100" viewBox="0 0 100 100" fill="none" xmlns="http://www.w3.org/2000/svg">
<path d="M48.1769 13.6083C48.3568 13.2816 48.621 13.0092 48.942 12.8195C49.263 12.6298 49.6291 12.5298 50.0019 12.5298C50.3748 12.5298 50.7409 12.6298 51.0619 12.8195C51.3829 13.0092 51.6471 13.2816 51.8269 13.6083L64.1269 36.9583C64.4202 37.499 64.8296 37.968 65.3257 38.3317C65.8218 38.6954 66.3922 38.9447 66.9961 39.0619C67.6 39.179 68.2223 39.1609 68.8183 39.009C69.4144 38.8571 69.9694 38.5751 70.4436 38.1833L88.2644 22.9166C88.6065 22.6384 89.0281 22.4758 89.4684 22.4524C89.9088 22.429 90.3452 22.546 90.7148 22.7864C91.0845 23.0268 91.3683 23.3783 91.5255 23.7903C91.6827 24.2023 91.7051 24.6536 91.5894 25.0791L79.7811 67.7708C79.5401 68.6444 79.0208 69.4156 78.302 69.9675C77.5831 70.5194 76.704 70.8219 75.7978 70.8291H24.2103C23.3033 70.8228 22.4232 70.5207 21.7036 69.9687C20.9839 69.4168 20.464 68.6451 20.2228 67.7708L8.4186 25.0833C8.30297 24.6577 8.32535 24.2065 8.48252 23.7945C8.63968 23.3825 8.92352 23.031 9.29318 22.7905C9.66284 22.5501 10.0993 22.4332 10.5396 22.4566C10.9799 22.48 11.4015 22.6425 11.7436 22.9208L29.5603 38.1874C30.0344 38.5793 30.5895 38.8613 31.1855 39.0132C31.7816 39.1651 32.4039 39.1831 33.0078 39.066C33.6116 38.9489 34.1821 38.6996 34.6781 38.3358C35.1742 37.9721 35.5836 37.5031 35.8769 36.9624L48.1769 13.6083Z" fill="#E0922B"/>
<path d="M20.8353 87.4999H79.1686H20.8353Z" fill="#E0922B"/>
<path d="M20.8353 87.4999H79.1686M48.1769 13.6083C48.3568 13.2816 48.621 13.0092 48.942 12.8195C49.263 12.6298 49.6291 12.5298 50.0019 12.5298C50.3748 12.5298 50.7409 12.6298 51.0619 12.8195C51.3829 13.0092 51.6471 13.2816 51.8269 13.6083L64.1269 36.9583C64.4202 37.499 64.8296 37.968 65.3257 38.3317C65.8218 38.6954 66.3922 38.9447 66.9961 39.0619C67.6 39.179 68.2223 39.1609 68.8183 39.009C69.4144 38.8571 69.9694 38.5751 70.4436 38.1833L88.2644 22.9166C88.6065 22.6384 89.0281 22.4758 89.4684 22.4524C89.9088 22.429 90.3452 22.546 90.7148 22.7864C91.0845 23.0268 91.3683 23.3783 91.5255 23.7903C91.6827 24.2023 91.7051 24.6536 91.5894 25.0791L79.7811 67.7708C79.5401 68.6444 79.0208 69.4156 78.302 69.9675C77.5831 70.5194 76.704 70.8219 75.7978 70.8291H24.2103C23.3033 70.8228 22.4232 70.5207 21.7036 69.9687C20.9839 69.4168 20.464 68.6451 20.2228 67.7708L8.4186 25.0833C8.30297 24.6577 8.32535 24.2065 8.48252 23.7945C8.63968 23.3825 8.92352 23.031 9.29318 22.7905C9.66284 22.5501 10.0993 22.4332 10.5396 22.4566C10.9799 22.48 11.4015 22.6425 11.7436 22.9208L29.5603 38.1874C30.0344 38.5793 30.5895 38.8613 31.1855 39.0132C31.7816 39.1651 32.4039 39.1831 33.0078 39.066C33.6116 38.9489 34.1821 38.6996 34.6781 38.3358C35.1742 37.9721 35.5836 37.5031 35.8769 36.9624L48.1769 13.6083Z" stroke="#A46D24" stroke-width="8.33333" stroke-linecap="round" stroke-linejoin="round"/>
</svg>
