<svg width="24" height="24" viewBox="0 0 24 24" fill="none" xmlns="http://www.w3.org/2000/svg">
<path d="M5.00042 21H19.0004M11.5624 3.26605C11.6056 3.18765 11.669 3.12228 11.746 3.07675C11.8231 3.03122 11.9109 3.0072 12.0004 3.0072C12.0899 3.0072 12.1778 3.03122 12.2548 3.07675C12.3319 3.12228 12.3953 3.18765 12.4384 3.26605L15.3904 8.87005C15.4608 8.99981 15.5591 9.11238 15.6781 9.19967C15.7972 9.28695 15.9341 9.3468 16.079 9.37491C16.224 9.40301 16.3733 9.39868 16.5164 9.36222C16.6594 9.32577 16.7926 9.25809 16.9064 9.16405L21.1834 5.50005C21.2655 5.43327 21.3667 5.39426 21.4724 5.38865C21.5781 5.38303 21.6828 5.41109 21.7715 5.46879C21.8602 5.52649 21.9284 5.61086 21.9661 5.70974C22.0038 5.80862 22.0092 5.91692 21.9814 6.01905L19.1474 16.265C19.0896 16.4747 18.9649 16.6598 18.7924 16.7923C18.6199 16.9247 18.4089 16.9973 18.1914 16.999H5.81042C5.59276 16.9975 5.38153 16.925 5.20882 16.7926C5.0361 16.6601 4.91132 16.4749 4.85342 16.265L2.02042 6.02005C1.99267 5.91792 1.99805 5.80962 2.03577 5.71074C2.07348 5.61186 2.14161 5.52749 2.23032 5.46979C2.31904 5.41209 2.42378 5.38403 2.52946 5.38965C2.63515 5.39526 2.73632 5.43427 2.81842 5.50105L7.09442 9.16505C7.20822 9.25909 7.34143 9.32677 7.48449 9.36322C7.62754 9.39968 7.7769 9.40401 7.92182 9.37591C8.06675 9.3478 8.20366 9.28795 8.32272 9.20066C8.44177 9.11338 8.54003 9.00081 8.61042 8.87105L11.5624 3.26605Z" stroke="#E0922B" stroke-width="2" stroke-linecap="round" stroke-linejoin="round"/>
</svg>
