<svg width="20" height="20" viewBox="0 0 20 20" fill="none" xmlns="http://www.w3.org/2000/svg">
<path fill-rule="evenodd" clip-rule="evenodd" d="M0.832031 9.99967C0.832031 15.0623 4.93609 19.1663 9.9987 19.1663C12.4298 19.1663 14.7614 18.2006 16.4805 16.4815C18.1996 14.7624 19.1654 12.4308 19.1654 9.99967C19.1654 4.93706 15.0613 0.833008 9.9987 0.833008C4.93609 0.833008 0.832031 4.93706 0.832031 9.99967ZM2.5 10C2.5 5.85786 5.85786 2.5 10 2.5C14.1421 2.5 17.5 5.85786 17.5 10C17.5 14.1421 14.1421 17.5 10 17.5C5.85786 17.5 2.5 14.1421 2.5 10Z" fill="#737373"/>
<path fill-rule="evenodd" clip-rule="evenodd" d="M7.0974 14.8914C7.21809 14.9639 7.35659 15.0014 7.4974 14.9997C7.65342 15.0002 7.80645 14.9569 7.93907 14.8747L14.6057 10.7081C14.8509 10.5561 15.0001 10.2882 15.0001 9.99972C15.0001 9.71127 14.8509 9.44333 14.6057 9.29138L7.93907 5.12472C7.68192 4.964 7.35777 4.95565 7.0927 5.10292C6.82762 5.25018 6.66346 5.52981 6.66407 5.83305V14.1664C6.66627 14.4688 6.83211 14.7462 7.0974 14.8914ZM12.5904 9.99967L8.33203 12.6663V7.33301L12.5904 9.99967Z" fill="#737373"/>
</svg>
