<svg width="20" height="20" viewBox="0 0 20 20" fill="none" xmlns="http://www.w3.org/2000/svg">
<path fill-rule="evenodd" clip-rule="evenodd" d="M0.832031 9.99967C0.832031 15.0623 4.93609 19.1663 9.9987 19.1663C12.4298 19.1663 14.7614 18.2006 16.4805 16.4815C18.1996 14.7624 19.1654 12.4308 19.1654 9.99967C19.1654 4.93706 15.0613 0.833008 9.9987 0.833008C4.93609 0.833008 0.832031 4.93706 0.832031 9.99967ZM2.5 10C2.5 5.85786 5.85786 2.5 10 2.5C14.1421 2.5 17.5 5.85786 17.5 10C17.5 14.1421 14.1421 17.5 10 17.5C5.85786 17.5 2.5 14.1421 2.5 10Z" fill="#222222"/>
<path d="M8.74993 12.118L14.1662 6L15 6.94102L8.74993 14L5 9.76474L5.83319 8.82373L8.74993 12.118Z" fill="#222222"/>
</svg>
