<svg width="20" height="20" viewBox="0 0 20 20" fill="none" xmlns="http://www.w3.org/2000/svg">
<path d="M1.66637 9.99962C1.66637 10.0786 1.68879 10.1559 1.73102 10.2225C1.77325 10.2892 1.83355 10.3425 1.9049 10.3763L16.9049 17.4596C16.9798 17.4959 17.0639 17.5089 17.1463 17.4968C17.2287 17.4847 17.3055 17.448 17.3668 17.3917C17.4281 17.3353 17.471 17.2619 17.49 17.1808C17.509 17.0997 17.5031 17.0148 17.4732 16.9371L15.1049 10.5813C14.9652 10.2061 14.9652 9.79315 15.1049 9.41796L17.4741 3.06212C17.5041 2.98433 17.51 2.89928 17.4911 2.81806C17.4721 2.73685 17.429 2.66325 17.3676 2.60684C17.3062 2.55044 17.2292 2.51386 17.1466 2.50187C17.0641 2.48988 16.9798 2.50304 16.9049 2.53962L1.9049 9.62296C1.83355 9.6567 1.77325 9.71002 1.73102 9.7767C1.68879 9.84339 1.66637 9.92069 1.66637 9.99962ZM1.66637 9.99962H14.9999" stroke="white" stroke-width="1.66667" stroke-linecap="round" stroke-linejoin="round"/>
</svg>
